<?xml version="1.0" encoding="utf-8" standalone="no"?>
<!DOCTYPE svg PUBLIC "-//W3C//DTD SVG 1.1//EN"
  "http://www.w3.org/Graphics/SVG/1.1/DTD/svg11.dtd">
<svg xmlns:xlink="http://www.w3.org/1999/xlink" width="408.425469pt" height="293.368469pt" viewBox="0 0 408.425469 293.368469" xmlns="http://www.w3.org/2000/svg" version="1.1">
 <metadata>
  <rdf:RDF xmlns:dc="http://purl.org/dc/elements/1.1/" xmlns:cc="http://creativecommons.org/ns#" xmlns:rdf="http://www.w3.org/1999/02/22-rdf-syntax-ns#">
   <cc:Work>
    <dc:type rdf:resource="http://purl.org/dc/dcmitype/StillImage"/>
    <dc:date>2026-06-30T17:04:46.466211</dc:date>
    <dc:format>image/svg+xml</dc:format>
    <dc:creator>
     <cc:Agent>
      <dc:title>Matplotlib v3.11.0, https://matplotlib.org/</dc:title>
     </cc:Agent>
    </dc:creator>
   </cc:Work>
  </rdf:RDF>
 </metadata>
 <defs>
  <style type="text/css">*{stroke-linejoin: round; stroke-linecap: butt}</style>
 </defs>
 <g id="figure_1">
  <g id="patch_1">
   <path d="M 0 293.368469 
L 408.425469 293.368469 
L 408.425469 0 
L 0 0 
z
" style="fill: #ffffff"/>
  </g>
  <g id="axes_1">
   <g id="patch_2">
    <path d="M 44.105469 255.166125 
L 401.225469 255.166125 
L 401.225469 22.318125 
L 44.105469 22.318125 
z
" style="fill: #ffffff"/>
   </g>
   <g id="matplotlib.axis_1">
    <g id="xtick_1">
     <g id="line2d_1">
      <path d="M 60.338196 255.166125 
L 60.338196 22.318125 
" clip-path="url(#p688f5374c1)" style="fill: none; stroke: #b0b0b0; stroke-opacity: 0.3; stroke-width: 0.8; stroke-linecap: square"/>
     </g>
     <g id="line2d_2">
      <defs>
       <path id="me735cd42fa" d="M 0 0 
L 0 3.5 
" style="stroke: #000000; stroke-width: 0.8"/>
      </defs>
      <g>
       <use xlink:href="#me735cd42fa" x="60.338196" y="255.166125" style="stroke: #000000; stroke-width: 0.8"/>
      </g>
     </g>
     <g id="text_1">
      <!-- 0 -->
      <g transform="translate(57.156946 269.763781) scale(0.1 -0.1)">
       <defs>
        <path id="DejaVuSans-13" d="M 2034 4250 
Q 1547 4250 1301 3770 
Q 1056 3291 1056 2328 
Q 1056 1369 1301 889 
Q 1547 409 2034 409 
Q 2525 409 2770 889 
Q 3016 1369 3016 2328 
Q 3016 3291 2770 3770 
Q 2525 4250 2034 4250 
z
M 2034 4750 
Q 2819 4750 3233 4129 
Q 3647 3509 3647 2328 
Q 3647 1150 3233 529 
Q 2819 -91 2034 -91 
Q 1250 -91 836 529 
Q 422 1150 422 2328 
Q 422 3509 836 4129 
Q 1250 4750 2034 4750 
z
" transform="scale(0.015625)"/>
       </defs>
       <use xlink:href="#DejaVuSans-13"/>
      </g>
     </g>
    </g>
    <g id="xtick_2">
     <g id="line2d_3">
      <path d="M 100.920014 255.166125 
L 100.920014 22.318125 
" clip-path="url(#p688f5374c1)" style="fill: none; stroke: #b0b0b0; stroke-opacity: 0.3; stroke-width: 0.8; stroke-linecap: square"/>
     </g>
     <g id="line2d_4">
      <g>
       <use xlink:href="#me735cd42fa" x="100.920014" y="255.166125" style="stroke: #000000; stroke-width: 0.8"/>
      </g>
     </g>
     <g id="text_2">
      <!-- 5 -->
      <g transform="translate(97.738764 269.763781) scale(0.1 -0.1)">
       <defs>
        <path id="DejaVuSans-18" d="M 691 4666 
L 3169 4666 
L 3169 4134 
L 1269 4134 
L 1269 2991 
Q 1406 3038 1543 3061 
Q 1681 3084 1819 3084 
Q 2600 3084 3056 2656 
Q 3513 2228 3513 1497 
Q 3513 744 3044 326 
Q 2575 -91 1722 -91 
Q 1428 -91 1123 -41 
Q 819 9 494 109 
L 494 744 
Q 775 591 1075 516 
Q 1375 441 1709 441 
Q 2250 441 2565 725 
Q 2881 1009 2881 1497 
Q 2881 1984 2565 2268 
Q 2250 2553 1709 2553 
Q 1456 2553 1204 2497 
Q 953 2441 691 2322 
L 691 4666 
z
" transform="scale(0.015625)"/>
       </defs>
       <use xlink:href="#DejaVuSans-18"/>
      </g>
     </g>
    </g>
    <g id="xtick_3">
     <g id="line2d_5">
      <path d="M 141.501832 255.166125 
L 141.501832 22.318125 
" clip-path="url(#p688f5374c1)" style="fill: none; stroke: #b0b0b0; stroke-opacity: 0.3; stroke-width: 0.8; stroke-linecap: square"/>
     </g>
     <g id="line2d_6">
      <g>
       <use xlink:href="#me735cd42fa" x="141.501832" y="255.166125" style="stroke: #000000; stroke-width: 0.8"/>
      </g>
     </g>
     <g id="text_3">
      <!-- 10 -->
      <g transform="translate(135.139332 269.763781) scale(0.1 -0.1)">
       <defs>
        <path id="DejaVuSans-14" d="M 794 531 
L 1825 531 
L 1825 4091 
L 703 3866 
L 703 4441 
L 1819 4666 
L 2450 4666 
L 2450 531 
L 3481 531 
L 3481 0 
L 794 0 
L 794 531 
z
" transform="scale(0.015625)"/>
       </defs>
       <use xlink:href="#DejaVuSans-14"/>
       <use xlink:href="#DejaVuSans-13" transform="translate(63.625 0)"/>
      </g>
     </g>
    </g>
    <g id="xtick_4">
     <g id="line2d_7">
      <path d="M 182.083651 255.166125 
L 182.083651 22.318125 
" clip-path="url(#p688f5374c1)" style="fill: none; stroke: #b0b0b0; stroke-opacity: 0.3; stroke-width: 0.8; stroke-linecap: square"/>
     </g>
     <g id="line2d_8">
      <g>
       <use xlink:href="#me735cd42fa" x="182.083651" y="255.166125" style="stroke: #000000; stroke-width: 0.8"/>
      </g>
     </g>
     <g id="text_4">
      <!-- 15 -->
      <g transform="translate(175.721151 269.763781) scale(0.1 -0.1)">
       <use xlink:href="#DejaVuSans-14"/>
       <use xlink:href="#DejaVuSans-18" transform="translate(63.625 0)"/>
      </g>
     </g>
    </g>
    <g id="xtick_5">
     <g id="line2d_9">
      <path d="M 222.665469 255.166125 
L 222.665469 22.318125 
" clip-path="url(#p688f5374c1)" style="fill: none; stroke: #b0b0b0; stroke-opacity: 0.3; stroke-width: 0.8; stroke-linecap: square"/>
     </g>
     <g id="line2d_10">
      <g>
       <use xlink:href="#me735cd42fa" x="222.665469" y="255.166125" style="stroke: #000000; stroke-width: 0.8"/>
      </g>
     </g>
     <g id="text_5">
      <!-- 20 -->
      <g transform="translate(216.302969 269.763781) scale(0.1 -0.1)">
       <defs>
        <path id="DejaVuSans-15" d="M 1228 531 
L 3431 531 
L 3431 0 
L 469 0 
L 469 531 
Q 828 903 1448 1529 
Q 2069 2156 2228 2338 
Q 2531 2678 2651 2914 
Q 2772 3150 2772 3378 
Q 2772 3750 2511 3984 
Q 2250 4219 1831 4219 
Q 1534 4219 1204 4116 
Q 875 4013 500 3803 
L 500 4441 
Q 881 4594 1212 4672 
Q 1544 4750 1819 4750 
Q 2544 4750 2975 4387 
Q 3406 4025 3406 3419 
Q 3406 3131 3298 2873 
Q 3191 2616 2906 2266 
Q 2828 2175 2409 1742 
Q 1991 1309 1228 531 
z
" transform="scale(0.015625)"/>
       </defs>
       <use xlink:href="#DejaVuSans-15"/>
       <use xlink:href="#DejaVuSans-13" transform="translate(63.625 0)"/>
      </g>
     </g>
    </g>
    <g id="xtick_6">
     <g id="line2d_11">
      <path d="M 263.247287 255.166125 
L 263.247287 22.318125 
" clip-path="url(#p688f5374c1)" style="fill: none; stroke: #b0b0b0; stroke-opacity: 0.3; stroke-width: 0.8; stroke-linecap: square"/>
     </g>
     <g id="line2d_12">
      <g>
       <use xlink:href="#me735cd42fa" x="263.247287" y="255.166125" style="stroke: #000000; stroke-width: 0.8"/>
      </g>
     </g>
     <g id="text_6">
      <!-- 25 -->
      <g transform="translate(256.884787 269.763781) scale(0.1 -0.1)">
       <use xlink:href="#DejaVuSans-15"/>
       <use xlink:href="#DejaVuSans-18" transform="translate(63.625 0)"/>
      </g>
     </g>
    </g>
    <g id="xtick_7">
     <g id="line2d_13">
      <path d="M 303.829105 255.166125 
L 303.829105 22.318125 
" clip-path="url(#p688f5374c1)" style="fill: none; stroke: #b0b0b0; stroke-opacity: 0.3; stroke-width: 0.8; stroke-linecap: square"/>
     </g>
     <g id="line2d_14">
      <g>
       <use xlink:href="#me735cd42fa" x="303.829105" y="255.166125" style="stroke: #000000; stroke-width: 0.8"/>
      </g>
     </g>
     <g id="text_7">
      <!-- 30 -->
      <g transform="translate(297.466605 269.763781) scale(0.1 -0.1)">
       <defs>
        <path id="DejaVuSans-16" d="M 2597 2516 
Q 3050 2419 3304 2112 
Q 3559 1806 3559 1356 
Q 3559 666 3084 287 
Q 2609 -91 1734 -91 
Q 1441 -91 1130 -33 
Q 819 25 488 141 
L 488 750 
Q 750 597 1062 519 
Q 1375 441 1716 441 
Q 2309 441 2620 675 
Q 2931 909 2931 1356 
Q 2931 1769 2642 2001 
Q 2353 2234 1838 2234 
L 1294 2234 
L 1294 2753 
L 1863 2753 
Q 2328 2753 2575 2939 
Q 2822 3125 2822 3475 
Q 2822 3834 2567 4026 
Q 2313 4219 1838 4219 
Q 1578 4219 1281 4162 
Q 984 4106 628 3988 
L 628 4550 
Q 988 4650 1302 4700 
Q 1616 4750 1894 4750 
Q 2613 4750 3031 4423 
Q 3450 4097 3450 3541 
Q 3450 3153 3228 2886 
Q 3006 2619 2597 2516 
z
" transform="scale(0.015625)"/>
       </defs>
       <use xlink:href="#DejaVuSans-16"/>
       <use xlink:href="#DejaVuSans-13" transform="translate(63.625 0)"/>
      </g>
     </g>
    </g>
    <g id="xtick_8">
     <g id="line2d_15">
      <path d="M 344.410923 255.166125 
L 344.410923 22.318125 
" clip-path="url(#p688f5374c1)" style="fill: none; stroke: #b0b0b0; stroke-opacity: 0.3; stroke-width: 0.8; stroke-linecap: square"/>
     </g>
     <g id="line2d_16">
      <g>
       <use xlink:href="#me735cd42fa" x="344.410923" y="255.166125" style="stroke: #000000; stroke-width: 0.8"/>
      </g>
     </g>
     <g id="text_8">
      <!-- 35 -->
      <g transform="translate(338.048423 269.763781) scale(0.1 -0.1)">
       <use xlink:href="#DejaVuSans-16"/>
       <use xlink:href="#DejaVuSans-18" transform="translate(63.625 0)"/>
      </g>
     </g>
    </g>
    <g id="xtick_9">
     <g id="line2d_17">
      <path d="M 384.992741 255.166125 
L 384.992741 22.318125 
" clip-path="url(#p688f5374c1)" style="fill: none; stroke: #b0b0b0; stroke-opacity: 0.3; stroke-width: 0.8; stroke-linecap: square"/>
     </g>
     <g id="line2d_18">
      <g>
       <use xlink:href="#me735cd42fa" x="384.992741" y="255.166125" style="stroke: #000000; stroke-width: 0.8"/>
      </g>
     </g>
     <g id="text_9">
      <!-- 40 -->
      <g transform="translate(378.630241 269.763781) scale(0.1 -0.1)">
       <defs>
        <path id="DejaVuSans-17" d="M 2419 4116 
L 825 1625 
L 2419 1625 
L 2419 4116 
z
M 2253 4666 
L 3047 4666 
L 3047 1625 
L 3713 1625 
L 3713 1100 
L 3047 1100 
L 3047 0 
L 2419 0 
L 2419 1100 
L 313 1100 
L 313 1709 
L 2253 4666 
z
" transform="scale(0.015625)"/>
       </defs>
       <use xlink:href="#DejaVuSans-17"/>
       <use xlink:href="#DejaVuSans-13" transform="translate(63.625 0)"/>
      </g>
     </g>
    </g>
    <g id="text_10">
     <!-- time $t$ -->
     <g transform="translate(207.815469 283.766125) scale(0.1 -0.1)">
      <defs>
       <path id="DejaVuSans-57" d="M 1172 4494 
L 1172 3500 
L 2356 3500 
L 2356 3053 
L 1172 3053 
L 1172 1153 
Q 1172 725 1289 603 
Q 1406 481 1766 481 
L 2356 481 
L 2356 0 
L 1766 0 
Q 1100 0 847 248 
Q 594 497 594 1153 
L 594 3053 
L 172 3053 
L 172 3500 
L 594 3500 
L 594 4494 
L 1172 4494 
z
" transform="scale(0.015625)"/>
       <path id="DejaVuSans-4c" d="M 603 3500 
L 1178 3500 
L 1178 0 
L 603 0 
L 603 3500 
z
M 603 4863 
L 1178 4863 
L 1178 4134 
L 603 4134 
L 603 4863 
z
" transform="scale(0.015625)"/>
       <path id="DejaVuSans-50" d="M 3328 2828 
Q 3544 3216 3844 3400 
Q 4144 3584 4550 3584 
Q 5097 3584 5394 3201 
Q 5691 2819 5691 2113 
L 5691 0 
L 5113 0 
L 5113 2094 
Q 5113 2597 4934 2840 
Q 4756 3084 4391 3084 
Q 3944 3084 3684 2787 
Q 3425 2491 3425 1978 
L 3425 0 
L 2847 0 
L 2847 2094 
Q 2847 2600 2669 2842 
Q 2491 3084 2119 3084 
Q 1678 3084 1418 2786 
Q 1159 2488 1159 1978 
L 1159 0 
L 581 0 
L 581 3500 
L 1159 3500 
L 1159 2956 
Q 1356 3278 1631 3431 
Q 1906 3584 2284 3584 
Q 2666 3584 2933 3390 
Q 3200 3197 3328 2828 
z
" transform="scale(0.015625)"/>
       <path id="DejaVuSans-48" d="M 3597 1894 
L 3597 1613 
L 953 1613 
Q 991 1019 1311 708 
Q 1631 397 2203 397 
Q 2534 397 2845 478 
Q 3156 559 3463 722 
L 3463 178 
Q 3153 47 2828 -22 
Q 2503 -91 2169 -91 
Q 1331 -91 842 396 
Q 353 884 353 1716 
Q 353 2575 817 3079 
Q 1281 3584 2069 3584 
Q 2775 3584 3186 3129 
Q 3597 2675 3597 1894 
z
M 3022 2063 
Q 3016 2534 2758 2815 
Q 2500 3097 2075 3097 
Q 1594 3097 1305 2825 
Q 1016 2553 972 2059 
L 3022 2063 
z
" transform="scale(0.015625)"/>
       <path id="DejaVuSans-3" transform="scale(0.015625)"/>
       <path id="DejaVuSans-Oblique-57" d="M 2706 3500 
L 2619 3053 
L 1472 3053 
L 1100 1153 
Q 1081 1047 1072 975 
Q 1063 903 1063 863 
Q 1063 663 1183 572 
Q 1303 481 1569 481 
L 2150 481 
L 2053 0 
L 1503 0 
Q 991 0 739 200 
Q 488 400 488 806 
Q 488 878 497 964 
Q 506 1050 525 1153 
L 897 3053 
L 409 3053 
L 500 3500 
L 978 3500 
L 1172 4494 
L 1747 4494 
L 1556 3500 
L 2706 3500 
z
" transform="scale(0.015625)"/>
      </defs>
      <use xlink:href="#DejaVuSans-57" transform="translate(0 0.015625)"/>
      <use xlink:href="#DejaVuSans-4c" transform="translate(39.208984 0.015625)"/>
      <use xlink:href="#DejaVuSans-50" transform="translate(66.992188 0.015625)"/>
      <use xlink:href="#DejaVuSans-48" transform="translate(164.404297 0.015625)"/>
      <use xlink:href="#DejaVuSans-3" transform="translate(225.927734 0.015625)"/>
      <use xlink:href="#DejaVuSans-Oblique-57" transform="translate(257.714844 0.015625)"/>
     </g>
    </g>
   </g>
   <g id="matplotlib.axis_2">
    <g id="ytick_1">
     <g id="line2d_19">
      <path d="M 44.105469 244.582125 
L 401.225469 244.582125 
" clip-path="url(#p688f5374c1)" style="fill: none; stroke: #b0b0b0; stroke-opacity: 0.3; stroke-width: 0.8; stroke-linecap: square"/>
     </g>
     <g id="line2d_20">
      <defs>
       <path id="mdcabd8037e" d="M 0 0 
L -3.5 0 
" style="stroke: #000000; stroke-width: 0.8"/>
      </defs>
      <g>
       <use xlink:href="#mdcabd8037e" x="44.105469" y="244.582125" style="stroke: #000000; stroke-width: 0.8"/>
      </g>
     </g>
     <g id="text_11">
      <!-- 0.0 -->
      <g transform="translate(21.202344 248.380953) scale(0.1 -0.1)">
       <defs>
        <path id="DejaVuSans-11" d="M 684 794 
L 1344 794 
L 1344 0 
L 684 0 
L 684 794 
z
" transform="scale(0.015625)"/>
       </defs>
       <use xlink:href="#DejaVuSans-13"/>
       <use xlink:href="#DejaVuSans-11" transform="translate(63.625 0)"/>
       <use xlink:href="#DejaVuSans-13" transform="translate(95.40625 0)"/>
      </g>
     </g>
    </g>
    <g id="ytick_2">
     <g id="line2d_21">
      <path d="M 44.105469 197.677613 
L 401.225469 197.677613 
" clip-path="url(#p688f5374c1)" style="fill: none; stroke: #b0b0b0; stroke-opacity: 0.3; stroke-width: 0.8; stroke-linecap: square"/>
     </g>
     <g id="line2d_22">
      <g>
       <use xlink:href="#mdcabd8037e" x="44.105469" y="197.677613" style="stroke: #000000; stroke-width: 0.8"/>
      </g>
     </g>
     <g id="text_12">
      <!-- 0.5 -->
      <g transform="translate(21.202344 201.476441) scale(0.1 -0.1)">
       <use xlink:href="#DejaVuSans-13"/>
       <use xlink:href="#DejaVuSans-11" transform="translate(63.625 0)"/>
       <use xlink:href="#DejaVuSans-18" transform="translate(95.40625 0)"/>
      </g>
     </g>
    </g>
    <g id="ytick_3">
     <g id="line2d_23">
      <path d="M 44.105469 150.773102 
L 401.225469 150.773102 
" clip-path="url(#p688f5374c1)" style="fill: none; stroke: #b0b0b0; stroke-opacity: 0.3; stroke-width: 0.8; stroke-linecap: square"/>
     </g>
     <g id="line2d_24">
      <g>
       <use xlink:href="#mdcabd8037e" x="44.105469" y="150.773102" style="stroke: #000000; stroke-width: 0.8"/>
      </g>
     </g>
     <g id="text_13">
      <!-- 1.0 -->
      <g transform="translate(21.202344 154.57193) scale(0.1 -0.1)">
       <use xlink:href="#DejaVuSans-14"/>
       <use xlink:href="#DejaVuSans-11" transform="translate(63.625 0)"/>
       <use xlink:href="#DejaVuSans-13" transform="translate(95.40625 0)"/>
      </g>
     </g>
    </g>
    <g id="ytick_4">
     <g id="line2d_25">
      <path d="M 44.105469 103.86859 
L 401.225469 103.86859 
" clip-path="url(#p688f5374c1)" style="fill: none; stroke: #b0b0b0; stroke-opacity: 0.3; stroke-width: 0.8; stroke-linecap: square"/>
     </g>
     <g id="line2d_26">
      <g>
       <use xlink:href="#mdcabd8037e" x="44.105469" y="103.86859" style="stroke: #000000; stroke-width: 0.8"/>
      </g>
     </g>
     <g id="text_14">
      <!-- 1.5 -->
      <g transform="translate(21.202344 107.667418) scale(0.1 -0.1)">
       <use xlink:href="#DejaVuSans-14"/>
       <use xlink:href="#DejaVuSans-11" transform="translate(63.625 0)"/>
       <use xlink:href="#DejaVuSans-18" transform="translate(95.40625 0)"/>
      </g>
     </g>
    </g>
    <g id="ytick_5">
     <g id="line2d_27">
      <path d="M 44.105469 56.964078 
L 401.225469 56.964078 
" clip-path="url(#p688f5374c1)" style="fill: none; stroke: #b0b0b0; stroke-opacity: 0.3; stroke-width: 0.8; stroke-linecap: square"/>
     </g>
     <g id="line2d_28">
      <g>
       <use xlink:href="#mdcabd8037e" x="44.105469" y="56.964078" style="stroke: #000000; stroke-width: 0.8"/>
      </g>
     </g>
     <g id="text_15">
      <!-- 2.0 -->
      <g transform="translate(21.202344 60.762906) scale(0.1 -0.1)">
       <use xlink:href="#DejaVuSans-15"/>
       <use xlink:href="#DejaVuSans-11" transform="translate(63.625 0)"/>
       <use xlink:href="#DejaVuSans-13" transform="translate(95.40625 0)"/>
      </g>
     </g>
    </g>
    <g id="text_16">
     <!-- geodesic distance to target $z$ -->
     <g transform="translate(14.8 211.442125) rotate(-90) scale(0.1 -0.1)">
      <defs>
       <path id="DejaVuSans-4a" d="M 2906 1791 
Q 2906 2416 2648 2759 
Q 2391 3103 1925 3103 
Q 1463 3103 1205 2759 
Q 947 2416 947 1791 
Q 947 1169 1205 825 
Q 1463 481 1925 481 
Q 2391 481 2648 825 
Q 2906 1169 2906 1791 
z
M 3481 434 
Q 3481 -459 3084 -895 
Q 2688 -1331 1869 -1331 
Q 1566 -1331 1297 -1286 
Q 1028 -1241 775 -1147 
L 775 -588 
Q 1028 -725 1275 -790 
Q 1522 -856 1778 -856 
Q 2344 -856 2625 -561 
Q 2906 -266 2906 331 
L 2906 616 
Q 2728 306 2450 153 
Q 2172 0 1784 0 
Q 1141 0 747 490 
Q 353 981 353 1791 
Q 353 2603 747 3093 
Q 1141 3584 1784 3584 
Q 2172 3584 2450 3431 
Q 2728 3278 2906 2969 
L 2906 3500 
L 3481 3500 
L 3481 434 
z
" transform="scale(0.015625)"/>
       <path id="DejaVuSans-52" d="M 1959 3097 
Q 1497 3097 1228 2736 
Q 959 2375 959 1747 
Q 959 1119 1226 758 
Q 1494 397 1959 397 
Q 2419 397 2687 759 
Q 2956 1122 2956 1747 
Q 2956 2369 2687 2733 
Q 2419 3097 1959 3097 
z
M 1959 3584 
Q 2709 3584 3137 3096 
Q 3566 2609 3566 1747 
Q 3566 888 3137 398 
Q 2709 -91 1959 -91 
Q 1206 -91 779 398 
Q 353 888 353 1747 
Q 353 2609 779 3096 
Q 1206 3584 1959 3584 
z
" transform="scale(0.015625)"/>
       <path id="DejaVuSans-47" d="M 2906 2969 
L 2906 4863 
L 3481 4863 
L 3481 0 
L 2906 0 
L 2906 525 
Q 2725 213 2448 61 
Q 2172 -91 1784 -91 
Q 1150 -91 751 415 
Q 353 922 353 1747 
Q 353 2572 751 3078 
Q 1150 3584 1784 3584 
Q 2172 3584 2448 3432 
Q 2725 3281 2906 2969 
z
M 947 1747 
Q 947 1113 1208 752 
Q 1469 391 1925 391 
Q 2381 391 2643 752 
Q 2906 1113 2906 1747 
Q 2906 2381 2643 2742 
Q 2381 3103 1925 3103 
Q 1469 3103 1208 2742 
Q 947 2381 947 1747 
z
" transform="scale(0.015625)"/>
       <path id="DejaVuSans-56" d="M 2834 3397 
L 2834 2853 
Q 2591 2978 2328 3040 
Q 2066 3103 1784 3103 
Q 1356 3103 1142 2972 
Q 928 2841 928 2578 
Q 928 2378 1081 2264 
Q 1234 2150 1697 2047 
L 1894 2003 
Q 2506 1872 2764 1633 
Q 3022 1394 3022 966 
Q 3022 478 2636 193 
Q 2250 -91 1575 -91 
Q 1294 -91 989 -36 
Q 684 19 347 128 
L 347 722 
Q 666 556 975 473 
Q 1284 391 1588 391 
Q 1994 391 2212 530 
Q 2431 669 2431 922 
Q 2431 1156 2273 1281 
Q 2116 1406 1581 1522 
L 1381 1569 
Q 847 1681 609 1914 
Q 372 2147 372 2553 
Q 372 3047 722 3315 
Q 1072 3584 1716 3584 
Q 2034 3584 2315 3537 
Q 2597 3491 2834 3397 
z
" transform="scale(0.015625)"/>
       <path id="DejaVuSans-46" d="M 3122 3366 
L 3122 2828 
Q 2878 2963 2633 3030 
Q 2388 3097 2138 3097 
Q 1578 3097 1268 2742 
Q 959 2388 959 1747 
Q 959 1106 1268 751 
Q 1578 397 2138 397 
Q 2388 397 2633 464 
Q 2878 531 3122 666 
L 3122 134 
Q 2881 22 2623 -34 
Q 2366 -91 2075 -91 
Q 1284 -91 818 406 
Q 353 903 353 1747 
Q 353 2603 823 3093 
Q 1294 3584 2113 3584 
Q 2378 3584 2631 3529 
Q 2884 3475 3122 3366 
z
" transform="scale(0.015625)"/>
       <path id="DejaVuSans-44" d="M 2194 1759 
Q 1497 1759 1228 1600 
Q 959 1441 959 1056 
Q 959 750 1161 570 
Q 1363 391 1709 391 
Q 2188 391 2477 730 
Q 2766 1069 2766 1631 
L 2766 1759 
L 2194 1759 
z
M 3341 1997 
L 3341 0 
L 2766 0 
L 2766 531 
Q 2569 213 2275 61 
Q 1981 -91 1556 -91 
Q 1019 -91 701 211 
Q 384 513 384 1019 
Q 384 1609 779 1909 
Q 1175 2209 1959 2209 
L 2766 2209 
L 2766 2266 
Q 2766 2663 2505 2880 
Q 2244 3097 1772 3097 
Q 1472 3097 1187 3025 
Q 903 2953 641 2809 
L 641 3341 
Q 956 3463 1253 3523 
Q 1550 3584 1831 3584 
Q 2591 3584 2966 3190 
Q 3341 2797 3341 1997 
z
" transform="scale(0.015625)"/>
       <path id="DejaVuSans-51" d="M 3513 2113 
L 3513 0 
L 2938 0 
L 2938 2094 
Q 2938 2591 2744 2837 
Q 2550 3084 2163 3084 
Q 1697 3084 1428 2787 
Q 1159 2491 1159 1978 
L 1159 0 
L 581 0 
L 581 3500 
L 1159 3500 
L 1159 2956 
Q 1366 3272 1645 3428 
Q 1925 3584 2291 3584 
Q 2894 3584 3203 3211 
Q 3513 2838 3513 2113 
z
" transform="scale(0.015625)"/>
       <path id="DejaVuSans-55" d="M 2631 2963 
Q 2534 3019 2420 3045 
Q 2306 3072 2169 3072 
Q 1681 3072 1420 2755 
Q 1159 2438 1159 1844 
L 1159 0 
L 581 0 
L 581 3500 
L 1159 3500 
L 1159 2956 
Q 1341 3275 1631 3429 
Q 1922 3584 2338 3584 
Q 2397 3584 2469 3576 
Q 2541 3569 2628 3553 
L 2631 2963 
z
" transform="scale(0.015625)"/>
       <path id="DejaVuSans-Oblique-5d" d="M 744 3500 
L 3475 3500 
L 3372 2975 
L 738 459 
L 2913 459 
L 2822 0 
L -19 0 
L 84 525 
L 2719 3041 
L 653 3041 
L 744 3500 
z
" transform="scale(0.015625)"/>
      </defs>
      <use xlink:href="#DejaVuSans-4a" transform="translate(0 0.015625)"/>
      <use xlink:href="#DejaVuSans-48" transform="translate(63.476562 0.015625)"/>
      <use xlink:href="#DejaVuSans-52" transform="translate(125 0.015625)"/>
      <use xlink:href="#DejaVuSans-47" transform="translate(186.181641 0.015625)"/>
      <use xlink:href="#DejaVuSans-48" transform="translate(249.658203 0.015625)"/>
      <use xlink:href="#DejaVuSans-56" transform="translate(311.181641 0.015625)"/>
      <use xlink:href="#DejaVuSans-4c" transform="translate(363.28125 0.015625)"/>
      <use xlink:href="#DejaVuSans-46" transform="translate(391.064453 0.015625)"/>
      <use xlink:href="#DejaVuSans-3" transform="translate(446.044922 0.015625)"/>
      <use xlink:href="#DejaVuSans-47" transform="translate(477.832031 0.015625)"/>
      <use xlink:href="#DejaVuSans-4c" transform="translate(541.308594 0.015625)"/>
      <use xlink:href="#DejaVuSans-56" transform="translate(569.091797 0.015625)"/>
      <use xlink:href="#DejaVuSans-57" transform="translate(621.191406 0.015625)"/>
      <use xlink:href="#DejaVuSans-44" transform="translate(660.400391 0.015625)"/>
      <use xlink:href="#DejaVuSans-51" transform="translate(721.679688 0.015625)"/>
      <use xlink:href="#DejaVuSans-46" transform="translate(785.058594 0.015625)"/>
      <use xlink:href="#DejaVuSans-48" transform="translate(840.039062 0.015625)"/>
      <use xlink:href="#DejaVuSans-3" transform="translate(901.5625 0.015625)"/>
      <use xlink:href="#DejaVuSans-57" transform="translate(933.349609 0.015625)"/>
      <use xlink:href="#DejaVuSans-52" transform="translate(972.558594 0.015625)"/>
      <use xlink:href="#DejaVuSans-3" transform="translate(1033.740234 0.015625)"/>
      <use xlink:href="#DejaVuSans-57" transform="translate(1065.527344 0.015625)"/>
      <use xlink:href="#DejaVuSans-44" transform="translate(1104.736328 0.015625)"/>
      <use xlink:href="#DejaVuSans-55" transform="translate(1166.015625 0.015625)"/>
      <use xlink:href="#DejaVuSans-4a" transform="translate(1205.128906 0.015625)"/>
      <use xlink:href="#DejaVuSans-48" transform="translate(1268.605469 0.015625)"/>
      <use xlink:href="#DejaVuSans-57" transform="translate(1330.128906 0.015625)"/>
      <use xlink:href="#DejaVuSans-3" transform="translate(1369.337891 0.015625)"/>
      <use xlink:href="#DejaVuSans-Oblique-5d" transform="translate(1401.125 0.015625)"/>
     </g>
    </g>
   </g>
   <g id="line2d_29">
    <path d="M 60.338196 34.965344 
L 63.584741 34.965344 
L 66.831287 34.965344 
L 70.077832 34.965344 
L 73.324378 34.965344 
L 76.570923 34.965344 
L 79.817469 34.965344 
L 83.064014 34.965344 
L 86.31056 34.965344 
L 89.557105 34.965344 
L 92.803651 34.965344 
L 96.050196 34.965344 
L 99.296741 34.965344 
L 102.543287 34.965344 
L 105.789832 34.965344 
L 109.036378 34.965344 
L 112.282923 34.965344 
L 115.529469 34.965344 
L 118.776014 34.965344 
L 122.02256 34.965344 
L 125.269105 34.965344 
L 128.515651 34.965344 
L 131.762196 34.965344 
L 135.008741 34.965344 
L 138.255287 34.965344 
L 141.501832 34.965344 
L 144.748378 34.965344 
L 147.994923 34.965344 
L 151.241469 34.965344 
L 154.488014 34.965344 
L 157.73456 34.965344 
L 160.981105 34.965344 
L 164.227651 34.965344 
L 167.474196 34.965344 
L 170.720741 34.965344 
L 173.967287 34.965344 
L 177.213832 34.965344 
L 180.460378 34.965344 
L 183.706923 34.965344 
L 186.953469 34.965344 
L 190.200014 34.965344 
L 193.44656 34.965344 
L 196.693105 34.965344 
L 199.939651 34.965344 
L 203.186196 34.965344 
L 206.432741 34.965344 
L 209.679287 34.965344 
L 212.925832 34.965344 
L 216.172378 34.965344 
L 219.418923 34.965344 
L 222.665469 34.965344 
L 225.912014 34.965344 
L 229.15856 34.965344 
L 232.405105 34.965344 
L 235.651651 34.965344 
L 238.898196 34.965344 
L 242.144741 34.965344 
L 245.391287 34.965344 
L 248.637832 34.965344 
L 251.884378 34.965344 
L 255.130923 34.965344 
L 258.377469 34.965344 
L 261.624014 34.965344 
L 264.87056 34.965344 
L 268.117105 34.965344 
L 271.363651 34.965344 
L 274.610196 34.965344 
L 277.856741 34.965344 
L 281.103287 34.965344 
L 284.349832 34.965344 
L 287.596378 34.965344 
L 290.842923 34.965344 
L 294.089469 34.965344 
L 297.336014 34.965344 
L 300.58256 34.965344 
L 303.829105 34.965344 
L 307.075651 34.965344 
L 310.322196 34.965344 
L 313.568741 34.965344 
L 316.815287 34.965344 
L 320.061832 34.965344 
L 323.308378 34.965344 
L 326.554923 34.965344 
L 329.801469 34.965344 
L 333.048014 34.965344 
L 336.29456 34.965344 
L 339.541105 34.965344 
L 342.787651 34.965344 
L 346.034196 34.965344 
L 349.280741 34.965344 
L 352.527287 34.965344 
L 355.773832 34.965344 
L 359.020378 34.965344 
L 362.266923 34.965344 
L 365.513469 34.965344 
L 368.760014 34.965344 
L 372.00656 34.965344 
L 375.253105 34.965344 
L 378.499651 34.965344 
L 381.746196 34.965344 
L 384.992741 34.965344 
" clip-path="url(#p688f5374c1)" style="fill: none; stroke: #7f7f7f; stroke-linecap: square"/>
   </g>
   <g id="line2d_30">
    <path d="M 60.338196 71.658029 
L 63.584741 71.658029 
L 66.831287 71.658029 
L 70.077832 71.658029 
L 73.324378 71.658029 
L 76.570923 71.658029 
L 79.817469 71.658029 
L 83.064014 71.658029 
L 86.31056 71.658029 
L 89.557105 71.658029 
L 92.803651 71.658029 
L 96.050196 71.658029 
L 99.296741 71.658029 
L 102.543287 71.658029 
L 105.789832 71.658029 
L 109.036378 71.658029 
L 112.282923 71.658029 
L 115.529469 71.658029 
L 118.776014 71.658029 
L 122.02256 71.658029 
L 125.269105 71.658029 
L 128.515651 71.658029 
L 131.762196 71.658029 
L 135.008741 71.658029 
L 138.255287 71.658029 
L 141.501832 71.658029 
L 144.748378 71.658029 
L 147.994923 71.658029 
L 151.241469 71.658029 
L 154.488014 71.658029 
L 157.73456 71.658029 
L 160.981105 71.658029 
L 164.227651 71.658029 
L 167.474196 71.658029 
L 170.720741 71.658029 
L 173.967287 71.658029 
L 177.213832 71.658029 
L 180.460378 71.658029 
L 183.706923 71.658029 
L 186.953469 71.658029 
L 190.200014 71.658029 
L 193.44656 71.658029 
L 196.693105 71.658029 
L 199.939651 71.658029 
L 203.186196 71.658029 
L 206.432741 71.658029 
L 209.679287 71.658029 
L 212.925832 71.658029 
L 216.172378 71.658029 
L 219.418923 71.658029 
L 222.665469 71.658029 
L 225.912014 71.658029 
L 229.15856 71.658029 
L 232.405105 71.658029 
L 235.651651 71.658029 
L 238.898196 71.658029 
L 242.144741 71.658029 
L 245.391287 71.658029 
L 248.637832 71.658029 
L 251.884378 71.658029 
L 255.130923 71.658029 
L 258.377469 71.658029 
L 261.624014 71.658029 
L 264.87056 71.658029 
L 268.117105 71.658029 
L 271.363651 71.658029 
L 274.610196 71.658029 
L 277.856741 71.658029 
L 281.103287 71.658029 
L 284.349832 71.658029 
L 287.596378 71.658029 
L 290.842923 71.658029 
L 294.089469 71.658029 
L 297.336014 71.658029 
L 300.58256 71.658029 
L 303.829105 71.658029 
L 307.075651 71.658029 
L 310.322196 71.658029 
L 313.568741 71.658029 
L 316.815287 71.658029 
L 320.061832 71.658029 
L 323.308378 71.658029 
L 326.554923 71.658029 
L 329.801469 71.658029 
L 333.048014 71.658029 
L 336.29456 71.658029 
L 339.541105 71.658029 
L 342.787651 71.658029 
L 346.034196 71.658029 
L 349.280741 71.658029 
L 352.527287 71.658029 
L 355.773832 71.658029 
L 359.020378 71.658029 
L 362.266923 71.658029 
L 365.513469 71.658029 
L 368.760014 71.658029 
L 372.00656 71.658029 
L 375.253105 71.658029 
L 378.499651 71.658029 
L 381.746196 71.658029 
L 384.992741 71.658029 
" clip-path="url(#p688f5374c1)" style="fill: none; stroke: #7f7f7f; stroke-linecap: square"/>
   </g>
   <g id="line2d_31">
    <path d="M 60.338196 66.689757 
L 63.584741 66.689757 
L 66.831287 66.689757 
L 70.077832 66.689757 
L 73.324378 66.689757 
L 76.570923 66.689757 
L 79.817469 66.689757 
L 83.064014 66.689757 
L 86.31056 66.689757 
L 89.557105 66.689757 
L 92.803651 66.689757 
L 96.050196 66.689757 
L 99.296741 66.689757 
L 102.543287 66.689757 
L 105.789832 66.689757 
L 109.036378 66.689757 
L 112.282923 66.689757 
L 115.529469 66.689757 
L 118.776014 66.689757 
L 122.02256 66.689757 
L 125.269105 66.689757 
L 128.515651 66.689757 
L 131.762196 66.689757 
L 135.008741 66.689757 
L 138.255287 66.689757 
L 141.501832 66.689757 
L 144.748378 66.689757 
L 147.994923 66.689757 
L 151.241469 66.689757 
L 154.488014 66.689757 
L 157.73456 66.689757 
L 160.981105 66.689757 
L 164.227651 66.689757 
L 167.474196 66.689757 
L 170.720741 66.689757 
L 173.967287 66.689757 
L 177.213832 66.689757 
L 180.460378 66.689757 
L 183.706923 66.689757 
L 186.953469 66.689757 
L 190.200014 66.689757 
L 193.44656 66.689757 
L 196.693105 66.689757 
L 199.939651 66.689757 
L 203.186196 66.689757 
L 206.432741 66.689757 
L 209.679287 66.689757 
L 212.925832 66.689757 
L 216.172378 66.689757 
L 219.418923 66.689757 
L 222.665469 66.689757 
L 225.912014 66.689757 
L 229.15856 66.689757 
L 232.405105 66.689757 
L 235.651651 66.689757 
L 238.898196 66.689757 
L 242.144741 66.689757 
L 245.391287 66.689757 
L 248.637832 66.689757 
L 251.884378 66.689757 
L 255.130923 66.689757 
L 258.377469 66.689757 
L 261.624014 66.689757 
L 264.87056 66.689757 
L 268.117105 66.689757 
L 271.363651 66.689757 
L 274.610196 66.689757 
L 277.856741 66.689757 
L 281.103287 66.689757 
L 284.349832 66.689757 
L 287.596378 66.689757 
L 290.842923 66.689757 
L 294.089469 66.689757 
L 297.336014 66.689757 
L 300.58256 66.689757 
L 303.829105 66.689757 
L 307.075651 66.689757 
L 310.322196 66.689757 
L 313.568741 66.689757 
L 316.815287 66.689757 
L 320.061832 66.689757 
L 323.308378 66.689757 
L 326.554923 66.689757 
L 329.801469 66.689757 
L 333.048014 66.689757 
L 336.29456 66.689757 
L 339.541105 66.689757 
L 342.787651 66.689757 
L 346.034196 66.689757 
L 349.280741 66.689757 
L 352.527287 66.689757 
L 355.773832 66.689757 
L 359.020378 66.689757 
L 362.266923 66.689757 
L 365.513469 66.689757 
L 368.760014 66.689757 
L 372.00656 66.689757 
L 375.253105 66.689757 
L 378.499651 66.689757 
L 381.746196 66.689757 
L 384.992741 66.689757 
" clip-path="url(#p688f5374c1)" style="fill: none; stroke: #7f7f7f; stroke-linecap: square"/>
   </g>
   <g id="line2d_32">
    <path d="M 60.338196 32.902125 
L 63.584741 32.902125 
L 66.831287 32.902125 
L 70.077832 32.902125 
L 73.324378 32.902125 
L 76.570923 32.902125 
L 79.817469 32.902125 
L 83.064014 32.902125 
L 86.31056 32.902125 
L 89.557105 32.902125 
L 92.803651 32.902125 
L 96.050196 32.902125 
L 99.296741 32.902125 
L 102.543287 32.902125 
L 105.789832 32.902125 
L 109.036378 32.902125 
L 112.282923 32.902125 
L 115.529469 32.902125 
L 118.776014 32.902125 
L 122.02256 32.902125 
L 125.269105 32.902125 
L 128.515651 32.902125 
L 131.762196 32.902125 
L 135.008741 32.902125 
L 138.255287 32.902125 
L 141.501832 32.902125 
L 144.748378 32.902125 
L 147.994923 32.902125 
L 151.241469 32.902125 
L 154.488014 32.902125 
L 157.73456 32.902125 
L 160.981105 32.902125 
L 164.227651 32.902125 
L 167.474196 32.902125 
L 170.720741 32.902125 
L 173.967287 32.902125 
L 177.213832 32.902125 
L 180.460378 32.902125 
L 183.706923 32.902125 
L 186.953469 32.902125 
L 190.200014 32.902125 
L 193.44656 32.902125 
L 196.693105 32.902125 
L 199.939651 32.902125 
L 203.186196 32.902125 
L 206.432741 32.902125 
L 209.679287 32.902125 
L 212.925832 32.902125 
L 216.172378 32.902125 
L 219.418923 32.902125 
L 222.665469 32.902125 
L 225.912014 32.902125 
L 229.15856 32.902125 
L 232.405105 32.902125 
L 235.651651 32.902125 
L 238.898196 32.902125 
L 242.144741 32.902125 
L 245.391287 32.902125 
L 248.637832 32.902125 
L 251.884378 32.902125 
L 255.130923 32.902125 
L 258.377469 32.902125 
L 261.624014 32.902125 
L 264.87056 32.902125 
L 268.117105 32.902125 
L 271.363651 32.902125 
L 274.610196 32.902125 
L 277.856741 32.902125 
L 281.103287 32.902125 
L 284.349832 32.902125 
L 287.596378 32.902125 
L 290.842923 32.902125 
L 294.089469 32.902125 
L 297.336014 32.902125 
L 300.58256 32.902125 
L 303.829105 32.902125 
L 307.075651 32.902125 
L 310.322196 32.902125 
L 313.568741 32.902125 
L 316.815287 32.902125 
L 320.061832 32.902125 
L 323.308378 32.902125 
L 326.554923 32.902125 
L 329.801469 32.902125 
L 333.048014 32.902125 
L 336.29456 32.902125 
L 339.541105 32.902125 
L 342.787651 32.902125 
L 346.034196 32.902125 
L 349.280741 32.902125 
L 352.527287 32.902125 
L 355.773832 32.902125 
L 359.020378 32.902125 
L 362.266923 32.902125 
L 365.513469 32.902125 
L 368.760014 32.902125 
L 372.00656 32.902125 
L 375.253105 32.902125 
L 378.499651 32.902125 
L 381.746196 32.902125 
L 384.992741 32.902125 
" clip-path="url(#p688f5374c1)" style="fill: none; stroke: #7f7f7f; stroke-linecap: square"/>
   </g>
   <g id="line2d_33">
    <path d="M 60.338196 55.109439 
L 63.584741 55.109439 
L 66.831287 55.109439 
L 70.077832 55.109439 
L 73.324378 55.109439 
L 76.570923 55.109439 
L 79.817469 55.109439 
L 83.064014 55.109439 
L 86.31056 55.109439 
L 89.557105 55.109439 
L 92.803651 55.109439 
L 96.050196 55.109439 
L 99.296741 55.109439 
L 102.543287 55.109439 
L 105.789832 55.109439 
L 109.036378 55.109439 
L 112.282923 55.109439 
L 115.529469 55.109439 
L 118.776014 55.109439 
L 122.02256 55.109439 
L 125.269105 55.109439 
L 128.515651 55.109439 
L 131.762196 55.109439 
L 135.008741 55.109439 
L 138.255287 55.109439 
L 141.501832 55.109439 
L 144.748378 55.109439 
L 147.994923 55.109439 
L 151.241469 55.109439 
L 154.488014 55.109439 
L 157.73456 55.109439 
L 160.981105 55.109439 
L 164.227651 55.109439 
L 167.474196 55.109439 
L 170.720741 55.109439 
L 173.967287 55.109439 
L 177.213832 55.109439 
L 180.460378 55.109439 
L 183.706923 55.109439 
L 186.953469 55.109439 
L 190.200014 55.109439 
L 193.44656 55.109439 
L 196.693105 55.109439 
L 199.939651 55.109439 
L 203.186196 55.109439 
L 206.432741 55.109439 
L 209.679287 55.109439 
L 212.925832 55.109439 
L 216.172378 55.109439 
L 219.418923 55.109439 
L 222.665469 55.109439 
L 225.912014 55.109439 
L 229.15856 55.109439 
L 232.405105 55.109439 
L 235.651651 55.109439 
L 238.898196 55.109439 
L 242.144741 55.109439 
L 245.391287 55.109439 
L 248.637832 55.109439 
L 251.884378 55.109439 
L 255.130923 55.109439 
L 258.377469 55.109439 
L 261.624014 55.109439 
L 264.87056 55.109439 
L 268.117105 55.109439 
L 271.363651 55.109439 
L 274.610196 55.109439 
L 277.856741 55.109439 
L 281.103287 55.109439 
L 284.349832 55.109439 
L 287.596378 55.109439 
L 290.842923 55.109439 
L 294.089469 55.109439 
L 297.336014 55.109439 
L 300.58256 55.109439 
L 303.829105 55.109439 
L 307.075651 55.109439 
L 310.322196 55.109439 
L 313.568741 55.109439 
L 316.815287 55.109439 
L 320.061832 55.109439 
L 323.308378 55.109439 
L 326.554923 55.109439 
L 329.801469 55.109439 
L 333.048014 55.109439 
L 336.29456 55.109439 
L 339.541105 55.109439 
L 342.787651 55.109439 
L 346.034196 55.109439 
L 349.280741 55.109439 
L 352.527287 55.109439 
L 355.773832 55.109439 
L 359.020378 55.109439 
L 362.266923 55.109439 
L 365.513469 55.109439 
L 368.760014 55.109439 
L 372.00656 55.109439 
L 375.253105 55.109439 
L 378.499651 55.109439 
L 381.746196 55.109439 
L 384.992741 55.109439 
" clip-path="url(#p688f5374c1)" style="fill: none; stroke: #7f7f7f; stroke-linecap: square"/>
   </g>
   <g id="line2d_34">
    <path d="M 60.338196 34.630245 
L 63.584741 75.077887 
L 66.831287 133.683689 
L 70.077832 184.646592 
L 73.324378 213.376228 
L 76.570923 227.963477 
L 79.817469 235.529233 
L 83.064014 239.577737 
L 86.31056 241.791633 
L 89.557105 243.018347 
L 92.803651 243.703303 
L 96.050196 244.087446 
L 99.296741 244.303422 
L 102.543287 244.425023 
L 105.789832 244.493543 
L 109.036378 244.53217 
L 112.282923 244.55395 
L 115.529469 244.566234 
L 118.776014 244.573162 
L 122.02256 244.577069 
L 125.269105 244.579273 
L 128.515651 244.580516 
L 131.762196 244.581218 
L 135.008741 244.581613 
L 138.255287 244.581836 
L 141.501832 244.581962 
L 144.748378 244.582033 
L 147.994923 244.582073 
L 151.241469 244.582096 
L 154.488014 244.582109 
L 157.73456 244.582116 
L 160.981105 244.58212 
L 164.227651 244.582122 
L 167.474196 244.582125 
L 170.720741 244.582125 
L 173.967287 244.582125 
L 177.213832 244.582125 
L 180.460378 244.582125 
L 183.706923 244.582125 
L 186.953469 244.582125 
L 190.200014 244.582125 
L 193.44656 244.582125 
L 196.693105 244.582125 
L 199.939651 244.582125 
L 203.186196 244.582125 
L 206.432741 244.582125 
L 209.679287 244.582125 
L 212.925832 244.582125 
L 216.172378 244.582125 
L 219.418923 244.582125 
L 222.665469 244.582125 
L 225.912014 244.582125 
L 229.15856 244.582125 
L 232.405105 244.582125 
L 235.651651 244.582125 
L 238.898196 244.582125 
L 242.144741 244.582125 
L 245.391287 244.582125 
L 248.637832 244.582125 
L 251.884378 244.582125 
L 255.130923 244.582125 
L 258.377469 244.582125 
L 261.624014 244.582125 
L 264.87056 244.582125 
L 268.117105 244.582125 
L 271.363651 244.582125 
L 274.610196 244.582125 
L 277.856741 244.582125 
L 281.103287 244.582125 
L 284.349832 244.582125 
L 287.596378 244.582125 
L 290.842923 244.582125 
L 294.089469 244.582125 
L 297.336014 244.582125 
L 300.58256 244.582125 
L 303.829105 244.582125 
L 307.075651 244.582125 
L 310.322196 244.582125 
L 313.568741 244.582125 
L 316.815287 244.582125 
L 320.061832 244.582125 
L 323.308378 244.582125 
L 326.554923 244.582125 
L 329.801469 244.582125 
L 333.048014 244.582125 
L 336.29456 244.582125 
L 339.541105 244.582125 
L 342.787651 244.582125 
L 346.034196 244.582125 
L 349.280741 244.582125 
L 352.527287 244.582125 
L 355.773832 244.582125 
L 359.020378 244.582125 
L 362.266923 244.582125 
L 365.513469 244.582125 
L 368.760014 244.582125 
L 372.00656 244.582125 
L 375.253105 244.582125 
L 378.499651 244.582125 
L 381.746196 244.582125 
L 384.992741 244.582125 
" clip-path="url(#p688f5374c1)" style="fill: none; stroke: #1f77b4; stroke-width: 2.5; stroke-linecap: square"/>
   </g>
   <g id="line2d_35">
    <path d="M 44.105469 239.891674 
L 401.225469 239.891674 
" clip-path="url(#p688f5374c1)" style="fill: none; stroke-dasharray: 5.55,2.4; stroke-dashoffset: 0; stroke: #d62728; stroke-width: 1.5"/>
   </g>
   <g id="patch_3">
    <path d="M 44.105469 255.166125 
L 44.105469 22.318125 
" style="fill: none; stroke: #000000; stroke-width: 0.8; stroke-linejoin: miter; stroke-linecap: square"/>
   </g>
   <g id="patch_4">
    <path d="M 401.225469 255.166125 
L 401.225469 22.318125 
" style="fill: none; stroke: #000000; stroke-width: 0.8; stroke-linejoin: miter; stroke-linecap: square"/>
   </g>
   <g id="patch_5">
    <path d="M 44.105469 255.166125 
L 401.225469 255.166125 
" style="fill: none; stroke: #000000; stroke-width: 0.8; stroke-linejoin: miter; stroke-linecap: square"/>
   </g>
   <g id="patch_6">
    <path d="M 44.105469 22.318125 
L 401.225469 22.318125 
" style="fill: none; stroke: #000000; stroke-width: 0.8; stroke-linejoin: miter; stroke-linecap: square"/>
   </g>
   <g id="text_17">
    <!-- E4 - gated steering moves only the active point -->
    <g transform="translate(79.728594 16.318125) scale(0.12 -0.12)">
     <defs>
      <path id="DejaVuSans-28" d="M 628 4666 
L 3578 4666 
L 3578 4134 
L 1259 4134 
L 1259 2753 
L 3481 2753 
L 3481 2222 
L 1259 2222 
L 1259 531 
L 3634 531 
L 3634 0 
L 628 0 
L 628 4666 
z
" transform="scale(0.015625)"/>
      <path id="DejaVuSans-10" d="M 313 2009 
L 1997 2009 
L 1997 1497 
L 313 1497 
L 313 2009 
z
" transform="scale(0.015625)"/>
      <path id="DejaVuSans-59" d="M 191 3500 
L 800 3500 
L 1894 563 
L 2988 3500 
L 3597 3500 
L 2284 0 
L 1503 0 
L 191 3500 
z
" transform="scale(0.015625)"/>
      <path id="DejaVuSans-4f" d="M 603 4863 
L 1178 4863 
L 1178 0 
L 603 0 
L 603 4863 
z
" transform="scale(0.015625)"/>
      <path id="DejaVuSans-5c" d="M 2059 -325 
Q 1816 -950 1584 -1140 
Q 1353 -1331 966 -1331 
L 506 -1331 
L 506 -850 
L 844 -850 
Q 1081 -850 1212 -737 
Q 1344 -625 1503 -206 
L 1606 56 
L 191 3500 
L 800 3500 
L 1894 763 
L 2988 3500 
L 3597 3500 
L 2059 -325 
z
" transform="scale(0.015625)"/>
      <path id="DejaVuSans-4b" d="M 3513 2113 
L 3513 0 
L 2938 0 
L 2938 2094 
Q 2938 2591 2744 2837 
Q 2550 3084 2163 3084 
Q 1697 3084 1428 2787 
Q 1159 2491 1159 1978 
L 1159 0 
L 581 0 
L 581 4863 
L 1159 4863 
L 1159 2956 
Q 1366 3272 1645 3428 
Q 1925 3584 2291 3584 
Q 2894 3584 3203 3211 
Q 3513 2838 3513 2113 
z
" transform="scale(0.015625)"/>
      <path id="DejaVuSans-53" d="M 1159 525 
L 1159 -1331 
L 581 -1331 
L 581 3500 
L 1159 3500 
L 1159 2969 
Q 1341 3281 1617 3432 
Q 1894 3584 2278 3584 
Q 2916 3584 3314 3078 
Q 3713 2572 3713 1747 
Q 3713 922 3314 415 
Q 2916 -91 2278 -91 
Q 1894 -91 1617 61 
Q 1341 213 1159 525 
z
M 3116 1747 
Q 3116 2381 2855 2742 
Q 2594 3103 2138 3103 
Q 1681 3103 1420 2742 
Q 1159 2381 1159 1747 
Q 1159 1113 1420 752 
Q 1681 391 2138 391 
Q 2594 391 2855 752 
Q 3116 1113 3116 1747 
z
" transform="scale(0.015625)"/>
     </defs>
     <use xlink:href="#DejaVuSans-28"/>
     <use xlink:href="#DejaVuSans-17" transform="translate(63.1875 0)"/>
     <use xlink:href="#DejaVuSans-3" transform="translate(126.8125 0)"/>
     <use xlink:href="#DejaVuSans-10" transform="translate(158.59375 0)"/>
     <use xlink:href="#DejaVuSans-3" transform="translate(194.671875 0)"/>
     <use xlink:href="#DejaVuSans-4a" transform="translate(226.453125 0)"/>
     <use xlink:href="#DejaVuSans-44" transform="translate(289.9375 0)"/>
     <use xlink:href="#DejaVuSans-57" transform="translate(351.21875 0)"/>
     <use xlink:href="#DejaVuSans-48" transform="translate(390.421875 0)"/>
     <use xlink:href="#DejaVuSans-47" transform="translate(451.953125 0)"/>
     <use xlink:href="#DejaVuSans-3" transform="translate(515.4375 0)"/>
     <use xlink:href="#DejaVuSans-56" transform="translate(547.21875 0)"/>
     <use xlink:href="#DejaVuSans-57" transform="translate(599.3125 0)"/>
     <use xlink:href="#DejaVuSans-48" transform="translate(638.515625 0)"/>
     <use xlink:href="#DejaVuSans-48" transform="translate(700.046875 0)"/>
     <use xlink:href="#DejaVuSans-55" transform="translate(761.578125 0)"/>
     <use xlink:href="#DejaVuSans-4c" transform="translate(802.6875 0)"/>
     <use xlink:href="#DejaVuSans-51" transform="translate(830.46875 0)"/>
     <use xlink:href="#DejaVuSans-4a" transform="translate(893.84375 0)"/>
     <use xlink:href="#DejaVuSans-3" transform="translate(957.328125 0)"/>
     <use xlink:href="#DejaVuSans-50" transform="translate(989.109375 0)"/>
     <use xlink:href="#DejaVuSans-52" transform="translate(1086.515625 0)"/>
     <use xlink:href="#DejaVuSans-59" transform="translate(1147.703125 0)"/>
     <use xlink:href="#DejaVuSans-48" transform="translate(1206.890625 0)"/>
     <use xlink:href="#DejaVuSans-56" transform="translate(1268.421875 0)"/>
     <use xlink:href="#DejaVuSans-3" transform="translate(1320.515625 0)"/>
     <use xlink:href="#DejaVuSans-52" transform="translate(1352.296875 0)"/>
     <use xlink:href="#DejaVuSans-51" transform="translate(1413.484375 0)"/>
     <use xlink:href="#DejaVuSans-4f" transform="translate(1476.859375 0)"/>
     <use xlink:href="#DejaVuSans-5c" transform="translate(1504.640625 0)"/>
     <use xlink:href="#DejaVuSans-3" transform="translate(1563.828125 0)"/>
     <use xlink:href="#DejaVuSans-57" transform="translate(1595.609375 0)"/>
     <use xlink:href="#DejaVuSans-4b" transform="translate(1634.8125 0)"/>
     <use xlink:href="#DejaVuSans-48" transform="translate(1698.1875 0)"/>
     <use xlink:href="#DejaVuSans-3" transform="translate(1759.71875 0)"/>
     <use xlink:href="#DejaVuSans-44" transform="translate(1791.5 0)"/>
     <use xlink:href="#DejaVuSans-46" transform="translate(1852.78125 0)"/>
     <use xlink:href="#DejaVuSans-57" transform="translate(1907.765625 0)"/>
     <use xlink:href="#DejaVuSans-4c" transform="translate(1946.96875 0)"/>
     <use xlink:href="#DejaVuSans-59" transform="translate(1974.75 0)"/>
     <use xlink:href="#DejaVuSans-48" transform="translate(2033.9375 0)"/>
     <use xlink:href="#DejaVuSans-3" transform="translate(2095.46875 0)"/>
     <use xlink:href="#DejaVuSans-53" transform="translate(2127.25 0)"/>
     <use xlink:href="#DejaVuSans-52" transform="translate(2190.734375 0)"/>
     <use xlink:href="#DejaVuSans-4c" transform="translate(2251.921875 0)"/>
     <use xlink:href="#DejaVuSans-51" transform="translate(2279.703125 0)"/>
     <use xlink:href="#DejaVuSans-57" transform="translate(2343.078125 0)"/>
    </g>
   </g>
   <g id="legend_1">
    <g id="patch_7">
     <path d="M 277.208281 75.320469 
L 394.225469 75.320469 
Q 396.225469 75.320469 396.225469 73.320469 
L 396.225469 29.318125 
Q 396.225469 27.318125 394.225469 27.318125 
L 277.208281 27.318125 
Q 275.208281 27.318125 275.208281 29.318125 
L 275.208281 73.320469 
Q 275.208281 75.320469 277.208281 75.320469 
z
" style="fill: #ffffff; opacity: 0.8; stroke: #cccccc; stroke-linejoin: miter"/>
    </g>
    <g id="line2d_36">
     <path d="M 279.208281 35.416562 
L 289.208281 35.416562 
L 299.208281 35.416562 
" style="fill: none; stroke: #7f7f7f; stroke-linecap: square"/>
    </g>
    <g id="text_18">
     <!-- inactive (parked) -->
     <g transform="translate(307.208281 38.916562) scale(0.1 -0.1)">
      <defs>
       <path id="DejaVuSans-b" d="M 1984 4856 
Q 1566 4138 1362 3434 
Q 1159 2731 1159 2009 
Q 1159 1288 1364 580 
Q 1569 -128 1984 -844 
L 1484 -844 
Q 1016 -109 783 600 
Q 550 1309 550 2009 
Q 550 2706 781 3412 
Q 1013 4119 1484 4856 
L 1984 4856 
z
" transform="scale(0.015625)"/>
       <path id="DejaVuSans-4e" d="M 581 4863 
L 1159 4863 
L 1159 1991 
L 2875 3500 
L 3609 3500 
L 1753 1863 
L 3688 0 
L 2938 0 
L 1159 1709 
L 1159 0 
L 581 0 
L 581 4863 
z
" transform="scale(0.015625)"/>
       <path id="DejaVuSans-c" d="M 513 4856 
L 1013 4856 
Q 1481 4119 1714 3412 
Q 1947 2706 1947 2009 
Q 1947 1309 1714 600 
Q 1481 -109 1013 -844 
L 513 -844 
Q 928 -128 1133 580 
Q 1338 1288 1338 2009 
Q 1338 2731 1133 3434 
Q 928 4138 513 4856 
z
" transform="scale(0.015625)"/>
      </defs>
      <use xlink:href="#DejaVuSans-4c"/>
      <use xlink:href="#DejaVuSans-51" transform="translate(27.78125 0)"/>
      <use xlink:href="#DejaVuSans-44" transform="translate(91.15625 0)"/>
      <use xlink:href="#DejaVuSans-46" transform="translate(152.4375 0)"/>
      <use xlink:href="#DejaVuSans-57" transform="translate(207.421875 0)"/>
      <use xlink:href="#DejaVuSans-4c" transform="translate(246.625 0)"/>
      <use xlink:href="#DejaVuSans-59" transform="translate(274.40625 0)"/>
      <use xlink:href="#DejaVuSans-48" transform="translate(333.59375 0)"/>
      <use xlink:href="#DejaVuSans-3" transform="translate(395.125 0)"/>
      <use xlink:href="#DejaVuSans-b" transform="translate(426.90625 0)"/>
      <use xlink:href="#DejaVuSans-53" transform="translate(465.921875 0)"/>
      <use xlink:href="#DejaVuSans-44" transform="translate(529.40625 0)"/>
      <use xlink:href="#DejaVuSans-55" transform="translate(590.6875 0)"/>
      <use xlink:href="#DejaVuSans-4e" transform="translate(631.796875 0)"/>
      <use xlink:href="#DejaVuSans-48" transform="translate(686.140625 0)"/>
      <use xlink:href="#DejaVuSans-47" transform="translate(747.671875 0)"/>
      <use xlink:href="#DejaVuSans-c" transform="translate(811.15625 0)"/>
     </g>
    </g>
    <g id="line2d_37">
     <path d="M 279.208281 50.417344 
L 289.208281 50.417344 
L 299.208281 50.417344 
" style="fill: none; stroke: #1f77b4; stroke-width: 2.5; stroke-linecap: square"/>
    </g>
    <g id="text_19">
     <!-- active point -->
     <g transform="translate(307.208281 53.917344) scale(0.1 -0.1)">
      <use xlink:href="#DejaVuSans-44"/>
      <use xlink:href="#DejaVuSans-46" transform="translate(61.28125 0)"/>
      <use xlink:href="#DejaVuSans-57" transform="translate(116.265625 0)"/>
      <use xlink:href="#DejaVuSans-4c" transform="translate(155.46875 0)"/>
      <use xlink:href="#DejaVuSans-59" transform="translate(183.25 0)"/>
      <use xlink:href="#DejaVuSans-48" transform="translate(242.4375 0)"/>
      <use xlink:href="#DejaVuSans-3" transform="translate(303.96875 0)"/>
      <use xlink:href="#DejaVuSans-53" transform="translate(335.75 0)"/>
      <use xlink:href="#DejaVuSans-52" transform="translate(399.234375 0)"/>
      <use xlink:href="#DejaVuSans-4c" transform="translate(460.421875 0)"/>
      <use xlink:href="#DejaVuSans-51" transform="translate(488.203125 0)"/>
      <use xlink:href="#DejaVuSans-57" transform="translate(551.578125 0)"/>
     </g>
    </g>
    <g id="line2d_38">
     <path d="M 279.208281 65.418125 
L 289.208281 65.418125 
L 299.208281 65.418125 
" style="fill: none; stroke-dasharray: 5.55,2.4; stroke-dashoffset: 0; stroke: #d62728; stroke-width: 1.5"/>
    </g>
    <g id="text_20">
     <!-- $\epsilon = 0.05$ -->
     <g transform="translate(307.208281 68.918125) scale(0.1 -0.1)">
      <defs>
       <path id="DejaVuSans-Oblique-349" d="M 1263 1888 
Q 925 1963 778 2166 
Q 669 2309 669 2503 
Q 669 3034 1175 3344 
Q 1575 3588 2188 3588 
Q 2425 3588 2684 3550 
Q 2944 3513 3234 3438 
L 3134 2916 
Q 2847 3006 2606 3047 
Q 2359 3088 2138 3088 
Q 1766 3088 1522 2944 
Q 1228 2772 1228 2522 
Q 1228 2356 1381 2241 
Q 1563 2103 1925 2103 
L 2409 2103 
L 2319 1628 
L 1856 1628 
Q 1425 1628 1172 1469 
Q 828 1253 828 916 
Q 828 703 1013 563 
Q 1244 388 1716 388 
Q 2006 388 2284 444 
Q 2563 503 2806 619 
L 2700 84 
Q 2403 -3 2131 -47 
Q 1859 -91 1609 -91 
Q 866 -91 516 194 
Q 250 413 250 781 
Q 250 1278 600 1584 
Q 859 1813 1263 1888 
z
" transform="scale(0.015625)"/>
       <path id="DejaVuSans-20" d="M 678 2906 
L 4684 2906 
L 4684 2381 
L 678 2381 
L 678 2906 
z
M 678 1631 
L 4684 1631 
L 4684 1100 
L 678 1100 
L 678 1631 
z
" transform="scale(0.015625)"/>
      </defs>
      <use xlink:href="#DejaVuSans-Oblique-349" transform="translate(0 0.78125)"/>
      <use xlink:href="#DejaVuSans-20" transform="translate(73.535156 0.78125)"/>
      <use xlink:href="#DejaVuSans-13" transform="translate(176.806641 0.78125)"/>
      <use xlink:href="#DejaVuSans-11" transform="translate(240.429688 0.78125)"/>
      <use xlink:href="#DejaVuSans-13" transform="translate(272.216797 0.78125)"/>
      <use xlink:href="#DejaVuSans-18" transform="translate(335.839844 0.78125)"/>
     </g>
    </g>
   </g>
  </g>
 </g>
 <defs>
  <clipPath id="p688f5374c1">
   <rect x="44.105469" y="22.318125" width="357.12" height="232.848"/>
  </clipPath>
 </defs>
</svg>
