<?xml version="1.0" encoding="utf-8" standalone="no"?>
<!DOCTYPE svg PUBLIC "-//W3C//DTD SVG 1.1//EN"
  "http://www.w3.org/Graphics/SVG/1.1/DTD/svg11.dtd">
<svg xmlns:xlink="http://www.w3.org/1999/xlink" width="408.425469pt" height="293.368469pt" viewBox="0 0 408.425469 293.368469" xmlns="http://www.w3.org/2000/svg" version="1.1">
 <metadata>
  <rdf:RDF xmlns:dc="http://purl.org/dc/elements/1.1/" xmlns:cc="http://creativecommons.org/ns#" xmlns:rdf="http://www.w3.org/1999/02/22-rdf-syntax-ns#">
   <cc:Work>
    <dc:type rdf:resource="http://purl.org/dc/dcmitype/StillImage"/>
    <dc:date>2026-06-30T17:04:26.977202</dc:date>
    <dc:format>image/svg+xml</dc:format>
    <dc:creator>
     <cc:Agent>
      <dc:title>Matplotlib v3.11.0, https://matplotlib.org/</dc:title>
     </cc:Agent>
    </dc:creator>
   </cc:Work>
  </rdf:RDF>
 </metadata>
 <defs>
  <style type="text/css">*{stroke-linejoin: round; stroke-linecap: butt}</style>
 </defs>
 <g id="figure_1">
  <g id="patch_1">
   <path d="M 0 293.368469 
L 408.425469 293.368469 
L 408.425469 0 
L 0 0 
z
" style="fill: #ffffff"/>
  </g>
  <g id="axes_1">
   <g id="patch_2">
    <path d="M 44.105469 255.166125 
L 401.225469 255.166125 
L 401.225469 22.318125 
L 44.105469 22.318125 
z
" style="fill: #ffffff"/>
   </g>
   <g id="matplotlib.axis_1">
    <g id="xtick_1">
     <g id="line2d_1">
      <path d="M 60.338196 255.166125 
L 60.338196 22.318125 
" clip-path="url(#p594c844361)" style="fill: none; stroke: #b0b0b0; stroke-opacity: 0.3; stroke-width: 0.8; stroke-linecap: square"/>
     </g>
     <g id="line2d_2">
      <defs>
       <path id="m6d0bd30ec4" d="M 0 0 
L 0 3.5 
" style="stroke: #000000; stroke-width: 0.8"/>
      </defs>
      <g>
       <use xlink:href="#m6d0bd30ec4" x="60.338196" y="255.166125" style="stroke: #000000; stroke-width: 0.8"/>
      </g>
     </g>
     <g id="text_1">
      <!-- 1 -->
      <g transform="translate(57.156946 269.763781) scale(0.1 -0.1)">
       <defs>
        <path id="DejaVuSans-14" d="M 794 531 
L 1825 531 
L 1825 4091 
L 703 3866 
L 703 4441 
L 1819 4666 
L 2450 4666 
L 2450 531 
L 3481 531 
L 3481 0 
L 794 0 
L 794 531 
z
" transform="scale(0.015625)"/>
       </defs>
       <use xlink:href="#DejaVuSans-14"/>
      </g>
     </g>
    </g>
    <g id="xtick_2">
     <g id="line2d_3">
      <path d="M 168.556378 255.166125 
L 168.556378 22.318125 
" clip-path="url(#p594c844361)" style="fill: none; stroke: #b0b0b0; stroke-opacity: 0.3; stroke-width: 0.8; stroke-linecap: square"/>
     </g>
     <g id="line2d_4">
      <g>
       <use xlink:href="#m6d0bd30ec4" x="168.556378" y="255.166125" style="stroke: #000000; stroke-width: 0.8"/>
      </g>
     </g>
     <g id="text_2">
      <!-- 2 -->
      <g transform="translate(165.375128 269.763781) scale(0.1 -0.1)">
       <defs>
        <path id="DejaVuSans-15" d="M 1228 531 
L 3431 531 
L 3431 0 
L 469 0 
L 469 531 
Q 828 903 1448 1529 
Q 2069 2156 2228 2338 
Q 2531 2678 2651 2914 
Q 2772 3150 2772 3378 
Q 2772 3750 2511 3984 
Q 2250 4219 1831 4219 
Q 1534 4219 1204 4116 
Q 875 4013 500 3803 
L 500 4441 
Q 881 4594 1212 4672 
Q 1544 4750 1819 4750 
Q 2544 4750 2975 4387 
Q 3406 4025 3406 3419 
Q 3406 3131 3298 2873 
Q 3191 2616 2906 2266 
Q 2828 2175 2409 1742 
Q 1991 1309 1228 531 
z
" transform="scale(0.015625)"/>
       </defs>
       <use xlink:href="#DejaVuSans-15"/>
      </g>
     </g>
    </g>
    <g id="xtick_3">
     <g id="line2d_5">
      <path d="M 276.77456 255.166125 
L 276.77456 22.318125 
" clip-path="url(#p594c844361)" style="fill: none; stroke: #b0b0b0; stroke-opacity: 0.3; stroke-width: 0.8; stroke-linecap: square"/>
     </g>
     <g id="line2d_6">
      <g>
       <use xlink:href="#m6d0bd30ec4" x="276.77456" y="255.166125" style="stroke: #000000; stroke-width: 0.8"/>
      </g>
     </g>
     <g id="text_3">
      <!-- 3 -->
      <g transform="translate(273.59331 269.763781) scale(0.1 -0.1)">
       <defs>
        <path id="DejaVuSans-16" d="M 2597 2516 
Q 3050 2419 3304 2112 
Q 3559 1806 3559 1356 
Q 3559 666 3084 287 
Q 2609 -91 1734 -91 
Q 1441 -91 1130 -33 
Q 819 25 488 141 
L 488 750 
Q 750 597 1062 519 
Q 1375 441 1716 441 
Q 2309 441 2620 675 
Q 2931 909 2931 1356 
Q 2931 1769 2642 2001 
Q 2353 2234 1838 2234 
L 1294 2234 
L 1294 2753 
L 1863 2753 
Q 2328 2753 2575 2939 
Q 2822 3125 2822 3475 
Q 2822 3834 2567 4026 
Q 2313 4219 1838 4219 
Q 1578 4219 1281 4162 
Q 984 4106 628 3988 
L 628 4550 
Q 988 4650 1302 4700 
Q 1616 4750 1894 4750 
Q 2613 4750 3031 4423 
Q 3450 4097 3450 3541 
Q 3450 3153 3228 2886 
Q 3006 2619 2597 2516 
z
" transform="scale(0.015625)"/>
       </defs>
       <use xlink:href="#DejaVuSans-16"/>
      </g>
     </g>
    </g>
    <g id="xtick_4">
     <g id="line2d_7">
      <path d="M 384.992741 255.166125 
L 384.992741 22.318125 
" clip-path="url(#p594c844361)" style="fill: none; stroke: #b0b0b0; stroke-opacity: 0.3; stroke-width: 0.8; stroke-linecap: square"/>
     </g>
     <g id="line2d_8">
      <g>
       <use xlink:href="#m6d0bd30ec4" x="384.992741" y="255.166125" style="stroke: #000000; stroke-width: 0.8"/>
      </g>
     </g>
     <g id="text_4">
      <!-- 4 -->
      <g transform="translate(381.811491 269.763781) scale(0.1 -0.1)">
       <defs>
        <path id="DejaVuSans-17" d="M 2419 4116 
L 825 1625 
L 2419 1625 
L 2419 4116 
z
M 2253 4666 
L 3047 4666 
L 3047 1625 
L 3713 1625 
L 3713 1100 
L 3047 1100 
L 3047 0 
L 2419 0 
L 2419 1100 
L 313 1100 
L 313 1709 
L 2253 4666 
z
" transform="scale(0.015625)"/>
       </defs>
       <use xlink:href="#DejaVuSans-17"/>
      </g>
     </g>
    </g>
    <g id="text_5">
     <!-- ball index $k$ (chain stage) -->
     <g transform="translate(159.365469 283.766125) scale(0.1 -0.1)">
      <defs>
       <path id="DejaVuSans-45" d="M 3116 1747 
Q 3116 2381 2855 2742 
Q 2594 3103 2138 3103 
Q 1681 3103 1420 2742 
Q 1159 2381 1159 1747 
Q 1159 1113 1420 752 
Q 1681 391 2138 391 
Q 2594 391 2855 752 
Q 3116 1113 3116 1747 
z
M 1159 2969 
Q 1341 3281 1617 3432 
Q 1894 3584 2278 3584 
Q 2916 3584 3314 3078 
Q 3713 2572 3713 1747 
Q 3713 922 3314 415 
Q 2916 -91 2278 -91 
Q 1894 -91 1617 61 
Q 1341 213 1159 525 
L 1159 0 
L 581 0 
L 581 4863 
L 1159 4863 
L 1159 2969 
z
" transform="scale(0.015625)"/>
       <path id="DejaVuSans-44" d="M 2194 1759 
Q 1497 1759 1228 1600 
Q 959 1441 959 1056 
Q 959 750 1161 570 
Q 1363 391 1709 391 
Q 2188 391 2477 730 
Q 2766 1069 2766 1631 
L 2766 1759 
L 2194 1759 
z
M 3341 1997 
L 3341 0 
L 2766 0 
L 2766 531 
Q 2569 213 2275 61 
Q 1981 -91 1556 -91 
Q 1019 -91 701 211 
Q 384 513 384 1019 
Q 384 1609 779 1909 
Q 1175 2209 1959 2209 
L 2766 2209 
L 2766 2266 
Q 2766 2663 2505 2880 
Q 2244 3097 1772 3097 
Q 1472 3097 1187 3025 
Q 903 2953 641 2809 
L 641 3341 
Q 956 3463 1253 3523 
Q 1550 3584 1831 3584 
Q 2591 3584 2966 3190 
Q 3341 2797 3341 1997 
z
" transform="scale(0.015625)"/>
       <path id="DejaVuSans-4f" d="M 603 4863 
L 1178 4863 
L 1178 0 
L 603 0 
L 603 4863 
z
" transform="scale(0.015625)"/>
       <path id="DejaVuSans-3" transform="scale(0.015625)"/>
       <path id="DejaVuSans-4c" d="M 603 3500 
L 1178 3500 
L 1178 0 
L 603 0 
L 603 3500 
z
M 603 4863 
L 1178 4863 
L 1178 4134 
L 603 4134 
L 603 4863 
z
" transform="scale(0.015625)"/>
       <path id="DejaVuSans-51" d="M 3513 2113 
L 3513 0 
L 2938 0 
L 2938 2094 
Q 2938 2591 2744 2837 
Q 2550 3084 2163 3084 
Q 1697 3084 1428 2787 
Q 1159 2491 1159 1978 
L 1159 0 
L 581 0 
L 581 3500 
L 1159 3500 
L 1159 2956 
Q 1366 3272 1645 3428 
Q 1925 3584 2291 3584 
Q 2894 3584 3203 3211 
Q 3513 2838 3513 2113 
z
" transform="scale(0.015625)"/>
       <path id="DejaVuSans-47" d="M 2906 2969 
L 2906 4863 
L 3481 4863 
L 3481 0 
L 2906 0 
L 2906 525 
Q 2725 213 2448 61 
Q 2172 -91 1784 -91 
Q 1150 -91 751 415 
Q 353 922 353 1747 
Q 353 2572 751 3078 
Q 1150 3584 1784 3584 
Q 2172 3584 2448 3432 
Q 2725 3281 2906 2969 
z
M 947 1747 
Q 947 1113 1208 752 
Q 1469 391 1925 391 
Q 2381 391 2643 752 
Q 2906 1113 2906 1747 
Q 2906 2381 2643 2742 
Q 2381 3103 1925 3103 
Q 1469 3103 1208 2742 
Q 947 2381 947 1747 
z
" transform="scale(0.015625)"/>
       <path id="DejaVuSans-48" d="M 3597 1894 
L 3597 1613 
L 953 1613 
Q 991 1019 1311 708 
Q 1631 397 2203 397 
Q 2534 397 2845 478 
Q 3156 559 3463 722 
L 3463 178 
Q 3153 47 2828 -22 
Q 2503 -91 2169 -91 
Q 1331 -91 842 396 
Q 353 884 353 1716 
Q 353 2575 817 3079 
Q 1281 3584 2069 3584 
Q 2775 3584 3186 3129 
Q 3597 2675 3597 1894 
z
M 3022 2063 
Q 3016 2534 2758 2815 
Q 2500 3097 2075 3097 
Q 1594 3097 1305 2825 
Q 1016 2553 972 2059 
L 3022 2063 
z
" transform="scale(0.015625)"/>
       <path id="DejaVuSans-5b" d="M 3513 3500 
L 2247 1797 
L 3578 0 
L 2900 0 
L 1881 1375 
L 863 0 
L 184 0 
L 1544 1831 
L 300 3500 
L 978 3500 
L 1906 2253 
L 2834 3500 
L 3513 3500 
z
" transform="scale(0.015625)"/>
       <path id="DejaVuSans-Oblique-4e" d="M 1172 4863 
L 1747 4863 
L 1197 2028 
L 3169 3500 
L 3916 3500 
L 1716 1825 
L 3322 0 
L 2625 0 
L 1131 1709 
L 800 0 
L 225 0 
L 1172 4863 
z
" transform="scale(0.015625)"/>
       <path id="DejaVuSans-b" d="M 1984 4856 
Q 1566 4138 1362 3434 
Q 1159 2731 1159 2009 
Q 1159 1288 1364 580 
Q 1569 -128 1984 -844 
L 1484 -844 
Q 1016 -109 783 600 
Q 550 1309 550 2009 
Q 550 2706 781 3412 
Q 1013 4119 1484 4856 
L 1984 4856 
z
" transform="scale(0.015625)"/>
       <path id="DejaVuSans-46" d="M 3122 3366 
L 3122 2828 
Q 2878 2963 2633 3030 
Q 2388 3097 2138 3097 
Q 1578 3097 1268 2742 
Q 959 2388 959 1747 
Q 959 1106 1268 751 
Q 1578 397 2138 397 
Q 2388 397 2633 464 
Q 2878 531 3122 666 
L 3122 134 
Q 2881 22 2623 -34 
Q 2366 -91 2075 -91 
Q 1284 -91 818 406 
Q 353 903 353 1747 
Q 353 2603 823 3093 
Q 1294 3584 2113 3584 
Q 2378 3584 2631 3529 
Q 2884 3475 3122 3366 
z
" transform="scale(0.015625)"/>
       <path id="DejaVuSans-4b" d="M 3513 2113 
L 3513 0 
L 2938 0 
L 2938 2094 
Q 2938 2591 2744 2837 
Q 2550 3084 2163 3084 
Q 1697 3084 1428 2787 
Q 1159 2491 1159 1978 
L 1159 0 
L 581 0 
L 581 4863 
L 1159 4863 
L 1159 2956 
Q 1366 3272 1645 3428 
Q 1925 3584 2291 3584 
Q 2894 3584 3203 3211 
Q 3513 2838 3513 2113 
z
" transform="scale(0.015625)"/>
       <path id="DejaVuSans-56" d="M 2834 3397 
L 2834 2853 
Q 2591 2978 2328 3040 
Q 2066 3103 1784 3103 
Q 1356 3103 1142 2972 
Q 928 2841 928 2578 
Q 928 2378 1081 2264 
Q 1234 2150 1697 2047 
L 1894 2003 
Q 2506 1872 2764 1633 
Q 3022 1394 3022 966 
Q 3022 478 2636 193 
Q 2250 -91 1575 -91 
Q 1294 -91 989 -36 
Q 684 19 347 128 
L 347 722 
Q 666 556 975 473 
Q 1284 391 1588 391 
Q 1994 391 2212 530 
Q 2431 669 2431 922 
Q 2431 1156 2273 1281 
Q 2116 1406 1581 1522 
L 1381 1569 
Q 847 1681 609 1914 
Q 372 2147 372 2553 
Q 372 3047 722 3315 
Q 1072 3584 1716 3584 
Q 2034 3584 2315 3537 
Q 2597 3491 2834 3397 
z
" transform="scale(0.015625)"/>
       <path id="DejaVuSans-57" d="M 1172 4494 
L 1172 3500 
L 2356 3500 
L 2356 3053 
L 1172 3053 
L 1172 1153 
Q 1172 725 1289 603 
Q 1406 481 1766 481 
L 2356 481 
L 2356 0 
L 1766 0 
Q 1100 0 847 248 
Q 594 497 594 1153 
L 594 3053 
L 172 3053 
L 172 3500 
L 594 3500 
L 594 4494 
L 1172 4494 
z
" transform="scale(0.015625)"/>
       <path id="DejaVuSans-4a" d="M 2906 1791 
Q 2906 2416 2648 2759 
Q 2391 3103 1925 3103 
Q 1463 3103 1205 2759 
Q 947 2416 947 1791 
Q 947 1169 1205 825 
Q 1463 481 1925 481 
Q 2391 481 2648 825 
Q 2906 1169 2906 1791 
z
M 3481 434 
Q 3481 -459 3084 -895 
Q 2688 -1331 1869 -1331 
Q 1566 -1331 1297 -1286 
Q 1028 -1241 775 -1147 
L 775 -588 
Q 1028 -725 1275 -790 
Q 1522 -856 1778 -856 
Q 2344 -856 2625 -561 
Q 2906 -266 2906 331 
L 2906 616 
Q 2728 306 2450 153 
Q 2172 0 1784 0 
Q 1141 0 747 490 
Q 353 981 353 1791 
Q 353 2603 747 3093 
Q 1141 3584 1784 3584 
Q 2172 3584 2450 3431 
Q 2728 3278 2906 2969 
L 2906 3500 
L 3481 3500 
L 3481 434 
z
" transform="scale(0.015625)"/>
       <path id="DejaVuSans-c" d="M 513 4856 
L 1013 4856 
Q 1481 4119 1714 3412 
Q 1947 2706 1947 2009 
Q 1947 1309 1714 600 
Q 1481 -109 1013 -844 
L 513 -844 
Q 928 -128 1133 580 
Q 1338 1288 1338 2009 
Q 1338 2731 1133 3434 
Q 928 4138 513 4856 
z
" transform="scale(0.015625)"/>
      </defs>
      <use xlink:href="#DejaVuSans-45" transform="translate(0 0.015625)"/>
      <use xlink:href="#DejaVuSans-44" transform="translate(63.476562 0.015625)"/>
      <use xlink:href="#DejaVuSans-4f" transform="translate(124.755859 0.015625)"/>
      <use xlink:href="#DejaVuSans-4f" transform="translate(152.539062 0.015625)"/>
      <use xlink:href="#DejaVuSans-3" transform="translate(180.322266 0.015625)"/>
      <use xlink:href="#DejaVuSans-4c" transform="translate(212.109375 0.015625)"/>
      <use xlink:href="#DejaVuSans-51" transform="translate(239.892578 0.015625)"/>
      <use xlink:href="#DejaVuSans-47" transform="translate(303.271484 0.015625)"/>
      <use xlink:href="#DejaVuSans-48" transform="translate(366.748047 0.015625)"/>
      <use xlink:href="#DejaVuSans-5b" transform="translate(426.271484 0.015625)"/>
      <use xlink:href="#DejaVuSans-3" transform="translate(485.451172 0.015625)"/>
      <use xlink:href="#DejaVuSans-Oblique-4e" transform="translate(517.238281 0.015625)"/>
      <use xlink:href="#DejaVuSans-3" transform="translate(575.148438 0.015625)"/>
      <use xlink:href="#DejaVuSans-b" transform="translate(606.935547 0.015625)"/>
      <use xlink:href="#DejaVuSans-46" transform="translate(645.949219 0.015625)"/>
      <use xlink:href="#DejaVuSans-4b" transform="translate(700.929688 0.015625)"/>
      <use xlink:href="#DejaVuSans-44" transform="translate(764.308594 0.015625)"/>
      <use xlink:href="#DejaVuSans-4c" transform="translate(825.587891 0.015625)"/>
      <use xlink:href="#DejaVuSans-51" transform="translate(853.371094 0.015625)"/>
      <use xlink:href="#DejaVuSans-3" transform="translate(916.75 0.015625)"/>
      <use xlink:href="#DejaVuSans-56" transform="translate(948.537109 0.015625)"/>
      <use xlink:href="#DejaVuSans-57" transform="translate(1000.636719 0.015625)"/>
      <use xlink:href="#DejaVuSans-44" transform="translate(1039.845703 0.015625)"/>
      <use xlink:href="#DejaVuSans-4a" transform="translate(1101.125 0.015625)"/>
      <use xlink:href="#DejaVuSans-48" transform="translate(1164.601562 0.015625)"/>
      <use xlink:href="#DejaVuSans-c" transform="translate(1226.125 0.015625)"/>
     </g>
    </g>
   </g>
   <g id="matplotlib.axis_2">
    <g id="ytick_1">
     <g id="line2d_9">
      <path d="M 44.105469 255.166125 
L 401.225469 255.166125 
" clip-path="url(#p594c844361)" style="fill: none; stroke: #b0b0b0; stroke-opacity: 0.3; stroke-width: 0.8; stroke-linecap: square"/>
     </g>
     <g id="line2d_10">
      <defs>
       <path id="m206a6821f1" d="M 0 0 
L -3.5 0 
" style="stroke: #000000; stroke-width: 0.8"/>
      </defs>
      <g>
       <use xlink:href="#m206a6821f1" x="44.105469" y="255.166125" style="stroke: #000000; stroke-width: 0.8"/>
      </g>
     </g>
     <g id="text_6">
      <!-- 0.0 -->
      <g transform="translate(21.202344 258.964953) scale(0.1 -0.1)">
       <defs>
        <path id="DejaVuSans-13" d="M 2034 4250 
Q 1547 4250 1301 3770 
Q 1056 3291 1056 2328 
Q 1056 1369 1301 889 
Q 1547 409 2034 409 
Q 2525 409 2770 889 
Q 3016 1369 3016 2328 
Q 3016 3291 2770 3770 
Q 2525 4250 2034 4250 
z
M 2034 4750 
Q 2819 4750 3233 4129 
Q 3647 3509 3647 2328 
Q 3647 1150 3233 529 
Q 2819 -91 2034 -91 
Q 1250 -91 836 529 
Q 422 1150 422 2328 
Q 422 3509 836 4129 
Q 1250 4750 2034 4750 
z
" transform="scale(0.015625)"/>
        <path id="DejaVuSans-11" d="M 684 794 
L 1344 794 
L 1344 0 
L 684 0 
L 684 794 
z
" transform="scale(0.015625)"/>
       </defs>
       <use xlink:href="#DejaVuSans-13"/>
       <use xlink:href="#DejaVuSans-11" transform="translate(63.625 0)"/>
       <use xlink:href="#DejaVuSans-13" transform="translate(95.40625 0)"/>
      </g>
     </g>
    </g>
    <g id="ytick_2">
     <g id="line2d_11">
      <path d="M 44.105469 209.509654 
L 401.225469 209.509654 
" clip-path="url(#p594c844361)" style="fill: none; stroke: #b0b0b0; stroke-opacity: 0.3; stroke-width: 0.8; stroke-linecap: square"/>
     </g>
     <g id="line2d_12">
      <g>
       <use xlink:href="#m206a6821f1" x="44.105469" y="209.509654" style="stroke: #000000; stroke-width: 0.8"/>
      </g>
     </g>
     <g id="text_7">
      <!-- 0.2 -->
      <g transform="translate(21.202344 213.308483) scale(0.1 -0.1)">
       <use xlink:href="#DejaVuSans-13"/>
       <use xlink:href="#DejaVuSans-11" transform="translate(63.625 0)"/>
       <use xlink:href="#DejaVuSans-15" transform="translate(95.40625 0)"/>
      </g>
     </g>
    </g>
    <g id="ytick_3">
     <g id="line2d_13">
      <path d="M 44.105469 163.853184 
L 401.225469 163.853184 
" clip-path="url(#p594c844361)" style="fill: none; stroke: #b0b0b0; stroke-opacity: 0.3; stroke-width: 0.8; stroke-linecap: square"/>
     </g>
     <g id="line2d_14">
      <g>
       <use xlink:href="#m206a6821f1" x="44.105469" y="163.853184" style="stroke: #000000; stroke-width: 0.8"/>
      </g>
     </g>
     <g id="text_8">
      <!-- 0.4 -->
      <g transform="translate(21.202344 167.652012) scale(0.1 -0.1)">
       <use xlink:href="#DejaVuSans-13"/>
       <use xlink:href="#DejaVuSans-11" transform="translate(63.625 0)"/>
       <use xlink:href="#DejaVuSans-17" transform="translate(95.40625 0)"/>
      </g>
     </g>
    </g>
    <g id="ytick_4">
     <g id="line2d_15">
      <path d="M 44.105469 118.196713 
L 401.225469 118.196713 
" clip-path="url(#p594c844361)" style="fill: none; stroke: #b0b0b0; stroke-opacity: 0.3; stroke-width: 0.8; stroke-linecap: square"/>
     </g>
     <g id="line2d_16">
      <g>
       <use xlink:href="#m206a6821f1" x="44.105469" y="118.196713" style="stroke: #000000; stroke-width: 0.8"/>
      </g>
     </g>
     <g id="text_9">
      <!-- 0.6 -->
      <g transform="translate(21.202344 121.995541) scale(0.1 -0.1)">
       <defs>
        <path id="DejaVuSans-19" d="M 2113 2584 
Q 1688 2584 1439 2293 
Q 1191 2003 1191 1497 
Q 1191 994 1439 701 
Q 1688 409 2113 409 
Q 2538 409 2786 701 
Q 3034 994 3034 1497 
Q 3034 2003 2786 2293 
Q 2538 2584 2113 2584 
z
M 3366 4563 
L 3366 3988 
Q 3128 4100 2886 4159 
Q 2644 4219 2406 4219 
Q 1781 4219 1451 3797 
Q 1122 3375 1075 2522 
Q 1259 2794 1537 2939 
Q 1816 3084 2150 3084 
Q 2853 3084 3261 2657 
Q 3669 2231 3669 1497 
Q 3669 778 3244 343 
Q 2819 -91 2113 -91 
Q 1303 -91 875 529 
Q 447 1150 447 2328 
Q 447 3434 972 4092 
Q 1497 4750 2381 4750 
Q 2619 4750 2861 4703 
Q 3103 4656 3366 4563 
z
" transform="scale(0.015625)"/>
       </defs>
       <use xlink:href="#DejaVuSans-13"/>
       <use xlink:href="#DejaVuSans-11" transform="translate(63.625 0)"/>
       <use xlink:href="#DejaVuSans-19" transform="translate(95.40625 0)"/>
      </g>
     </g>
    </g>
    <g id="ytick_5">
     <g id="line2d_17">
      <path d="M 44.105469 72.540243 
L 401.225469 72.540243 
" clip-path="url(#p594c844361)" style="fill: none; stroke: #b0b0b0; stroke-opacity: 0.3; stroke-width: 0.8; stroke-linecap: square"/>
     </g>
     <g id="line2d_18">
      <g>
       <use xlink:href="#m206a6821f1" x="44.105469" y="72.540243" style="stroke: #000000; stroke-width: 0.8"/>
      </g>
     </g>
     <g id="text_10">
      <!-- 0.8 -->
      <g transform="translate(21.202344 76.339071) scale(0.1 -0.1)">
       <defs>
        <path id="DejaVuSans-1b" d="M 2034 2216 
Q 1584 2216 1326 1975 
Q 1069 1734 1069 1313 
Q 1069 891 1326 650 
Q 1584 409 2034 409 
Q 2484 409 2743 651 
Q 3003 894 3003 1313 
Q 3003 1734 2745 1975 
Q 2488 2216 2034 2216 
z
M 1403 2484 
Q 997 2584 770 2862 
Q 544 3141 544 3541 
Q 544 4100 942 4425 
Q 1341 4750 2034 4750 
Q 2731 4750 3128 4425 
Q 3525 4100 3525 3541 
Q 3525 3141 3298 2862 
Q 3072 2584 2669 2484 
Q 3125 2378 3379 2068 
Q 3634 1759 3634 1313 
Q 3634 634 3220 271 
Q 2806 -91 2034 -91 
Q 1263 -91 848 271 
Q 434 634 434 1313 
Q 434 1759 690 2068 
Q 947 2378 1403 2484 
z
M 1172 3481 
Q 1172 3119 1398 2916 
Q 1625 2713 2034 2713 
Q 2441 2713 2670 2916 
Q 2900 3119 2900 3481 
Q 2900 3844 2670 4047 
Q 2441 4250 2034 4250 
Q 1625 4250 1398 4047 
Q 1172 3844 1172 3481 
z
" transform="scale(0.015625)"/>
       </defs>
       <use xlink:href="#DejaVuSans-13"/>
       <use xlink:href="#DejaVuSans-11" transform="translate(63.625 0)"/>
       <use xlink:href="#DejaVuSans-1b" transform="translate(95.40625 0)"/>
      </g>
     </g>
    </g>
    <g id="ytick_6">
     <g id="line2d_19">
      <path d="M 44.105469 26.883772 
L 401.225469 26.883772 
" clip-path="url(#p594c844361)" style="fill: none; stroke: #b0b0b0; stroke-opacity: 0.3; stroke-width: 0.8; stroke-linecap: square"/>
     </g>
     <g id="line2d_20">
      <g>
       <use xlink:href="#m206a6821f1" x="44.105469" y="26.883772" style="stroke: #000000; stroke-width: 0.8"/>
      </g>
     </g>
     <g id="text_11">
      <!-- 1.0 -->
      <g transform="translate(21.202344 30.6826) scale(0.1 -0.1)">
       <use xlink:href="#DejaVuSans-14"/>
       <use xlink:href="#DejaVuSans-11" transform="translate(63.625 0)"/>
       <use xlink:href="#DejaVuSans-13" transform="translate(95.40625 0)"/>
      </g>
     </g>
    </g>
    <g id="text_12">
     <!-- fraction within $0.1$ of anchor $a_k$ -->
     <g transform="translate(14.8 216.342125) rotate(-90) scale(0.1 -0.1)">
      <defs>
       <path id="DejaVuSans-49" d="M 2375 4863 
L 2375 4384 
L 1825 4384 
Q 1516 4384 1395 4259 
Q 1275 4134 1275 3809 
L 1275 3500 
L 2222 3500 
L 2222 3053 
L 1275 3053 
L 1275 0 
L 697 0 
L 697 3053 
L 147 3053 
L 147 3500 
L 697 3500 
L 697 3744 
Q 697 4328 969 4595 
Q 1241 4863 1831 4863 
L 2375 4863 
z
" transform="scale(0.015625)"/>
       <path id="DejaVuSans-55" d="M 2631 2963 
Q 2534 3019 2420 3045 
Q 2306 3072 2169 3072 
Q 1681 3072 1420 2755 
Q 1159 2438 1159 1844 
L 1159 0 
L 581 0 
L 581 3500 
L 1159 3500 
L 1159 2956 
Q 1341 3275 1631 3429 
Q 1922 3584 2338 3584 
Q 2397 3584 2469 3576 
Q 2541 3569 2628 3553 
L 2631 2963 
z
" transform="scale(0.015625)"/>
       <path id="DejaVuSans-52" d="M 1959 3097 
Q 1497 3097 1228 2736 
Q 959 2375 959 1747 
Q 959 1119 1226 758 
Q 1494 397 1959 397 
Q 2419 397 2687 759 
Q 2956 1122 2956 1747 
Q 2956 2369 2687 2733 
Q 2419 3097 1959 3097 
z
M 1959 3584 
Q 2709 3584 3137 3096 
Q 3566 2609 3566 1747 
Q 3566 888 3137 398 
Q 2709 -91 1959 -91 
Q 1206 -91 779 398 
Q 353 888 353 1747 
Q 353 2609 779 3096 
Q 1206 3584 1959 3584 
z
" transform="scale(0.015625)"/>
       <path id="DejaVuSans-5a" d="M 269 3500 
L 844 3500 
L 1563 769 
L 2278 3500 
L 2956 3500 
L 3675 769 
L 4391 3500 
L 4966 3500 
L 4050 0 
L 3372 0 
L 2619 2869 
L 1863 0 
L 1184 0 
L 269 3500 
z
" transform="scale(0.015625)"/>
       <path id="DejaVuSans-Oblique-44" d="M 3438 1997 
L 3047 0 
L 2472 0 
L 2578 531 
Q 2325 219 2001 64 
Q 1678 -91 1281 -91 
Q 834 -91 548 182 
Q 263 456 263 884 
Q 263 1497 752 1853 
Q 1241 2209 2100 2209 
L 2900 2209 
L 2931 2363 
Q 2938 2388 2941 2417 
Q 2944 2447 2944 2509 
Q 2944 2788 2717 2942 
Q 2491 3097 2081 3097 
Q 1800 3097 1504 3025 
Q 1209 2953 897 2809 
L 997 3341 
Q 1322 3463 1633 3523 
Q 1944 3584 2234 3584 
Q 2853 3584 3176 3315 
Q 3500 3047 3500 2534 
Q 3500 2431 3484 2292 
Q 3469 2153 3438 1997 
z
M 2816 1759 
L 2241 1759 
Q 1534 1759 1195 1570 
Q 856 1381 856 984 
Q 856 709 1029 553 
Q 1203 397 1509 397 
Q 1978 397 2328 733 
Q 2678 1069 2791 1631 
L 2816 1759 
z
" transform="scale(0.015625)"/>
      </defs>
      <use xlink:href="#DejaVuSans-49" transform="translate(0 0.015625)"/>
      <use xlink:href="#DejaVuSans-55" transform="translate(35.205078 0.015625)"/>
      <use xlink:href="#DejaVuSans-44" transform="translate(76.318359 0.015625)"/>
      <use xlink:href="#DejaVuSans-46" transform="translate(137.597656 0.015625)"/>
      <use xlink:href="#DejaVuSans-57" transform="translate(192.578125 0.015625)"/>
      <use xlink:href="#DejaVuSans-4c" transform="translate(231.787109 0.015625)"/>
      <use xlink:href="#DejaVuSans-52" transform="translate(259.570312 0.015625)"/>
      <use xlink:href="#DejaVuSans-51" transform="translate(320.751953 0.015625)"/>
      <use xlink:href="#DejaVuSans-3" transform="translate(384.130859 0.015625)"/>
      <use xlink:href="#DejaVuSans-5a" transform="translate(415.917969 0.015625)"/>
      <use xlink:href="#DejaVuSans-4c" transform="translate(497.705078 0.015625)"/>
      <use xlink:href="#DejaVuSans-57" transform="translate(525.488281 0.015625)"/>
      <use xlink:href="#DejaVuSans-4b" transform="translate(564.697266 0.015625)"/>
      <use xlink:href="#DejaVuSans-4c" transform="translate(628.076172 0.015625)"/>
      <use xlink:href="#DejaVuSans-51" transform="translate(655.859375 0.015625)"/>
      <use xlink:href="#DejaVuSans-3" transform="translate(719.238281 0.015625)"/>
      <use xlink:href="#DejaVuSans-13" transform="translate(751.025391 0.015625)"/>
      <use xlink:href="#DejaVuSans-11" transform="translate(814.648438 0.015625)"/>
      <use xlink:href="#DejaVuSans-14" transform="translate(846.435547 0.015625)"/>
      <use xlink:href="#DejaVuSans-3" transform="translate(910.058594 0.015625)"/>
      <use xlink:href="#DejaVuSans-52" transform="translate(941.845703 0.015625)"/>
      <use xlink:href="#DejaVuSans-49" transform="translate(1003.027344 0.015625)"/>
      <use xlink:href="#DejaVuSans-3" transform="translate(1038.232422 0.015625)"/>
      <use xlink:href="#DejaVuSans-44" transform="translate(1070.019531 0.015625)"/>
      <use xlink:href="#DejaVuSans-51" transform="translate(1131.298828 0.015625)"/>
      <use xlink:href="#DejaVuSans-46" transform="translate(1194.677734 0.015625)"/>
      <use xlink:href="#DejaVuSans-4b" transform="translate(1249.658203 0.015625)"/>
      <use xlink:href="#DejaVuSans-52" transform="translate(1313.037109 0.015625)"/>
      <use xlink:href="#DejaVuSans-55" transform="translate(1374.21875 0.015625)"/>
      <use xlink:href="#DejaVuSans-3" transform="translate(1415.332031 0.015625)"/>
      <use xlink:href="#DejaVuSans-Oblique-44" transform="translate(1447.119141 0.015625)"/>
      <use xlink:href="#DejaVuSans-Oblique-4e" transform="translate(1508.398438 -14.984326) scale(0.7)"/>
     </g>
    </g>
   </g>
   <g id="line2d_21">
    <path d="M 60.338196 26.883772 
L 168.556378 26.883772 
L 276.77456 26.883772 
L 384.992741 26.883772 
" clip-path="url(#p594c844361)" style="fill: none; stroke: #1f77b4; stroke-width: 2; stroke-linecap: square"/>
    <defs>
     <path id="mbabae5296a" d="M 0 3 
C 0.795609 3 1.55874 2.683901 2.12132 2.12132 
C 2.683901 1.55874 3 0.795609 3 0 
C 3 -0.795609 2.683901 -1.55874 2.12132 -2.12132 
C 1.55874 -2.683901 0.795609 -3 0 -3 
C -0.795609 -3 -1.55874 -2.683901 -2.12132 -2.12132 
C -2.683901 -1.55874 -3 -0.795609 -3 0 
C -3 0.795609 -2.683901 1.55874 -2.12132 2.12132 
C -1.55874 2.683901 -0.795609 3 0 3 
z
" style="stroke: #1f77b4"/>
    </defs>
    <g clip-path="url(#p594c844361)">
     <use xlink:href="#mbabae5296a" x="60.338196" y="26.883772" style="fill: #1f77b4; stroke: #1f77b4"/>
     <use xlink:href="#mbabae5296a" x="168.556378" y="26.883772" style="fill: #1f77b4; stroke: #1f77b4"/>
     <use xlink:href="#mbabae5296a" x="276.77456" y="26.883772" style="fill: #1f77b4; stroke: #1f77b4"/>
     <use xlink:href="#mbabae5296a" x="384.992741" y="26.883772" style="fill: #1f77b4; stroke: #1f77b4"/>
    </g>
   </g>
   <g id="line2d_22">
    <path d="M 60.338196 38.29789 
L 168.556378 49.141301 
L 276.77456 59.442543 
L 384.992741 69.228722 
" clip-path="url(#p594c844361)" style="fill: none; stroke-dasharray: 5.55,2.4; stroke-dashoffset: 0; stroke: #d62728; stroke-width: 1.5"/>
    <defs>
     <path id="m65ce87c8a0" d="M -3 3 
L 3 3 
L 3 -3 
L -3 -3 
z
" style="stroke: #d62728; stroke-linejoin: miter"/>
    </defs>
    <g clip-path="url(#p594c844361)">
     <use xlink:href="#m65ce87c8a0" x="60.338196" y="38.29789" style="fill: #d62728; stroke: #d62728; stroke-linejoin: miter"/>
     <use xlink:href="#m65ce87c8a0" x="168.556378" y="49.141301" style="fill: #d62728; stroke: #d62728; stroke-linejoin: miter"/>
     <use xlink:href="#m65ce87c8a0" x="276.77456" y="59.442543" style="fill: #d62728; stroke: #d62728; stroke-linejoin: miter"/>
     <use xlink:href="#m65ce87c8a0" x="384.992741" y="69.228722" style="fill: #d62728; stroke: #d62728; stroke-linejoin: miter"/>
    </g>
   </g>
   <g id="patch_3">
    <path d="M 44.105469 255.166125 
L 44.105469 22.318125 
" style="fill: none; stroke: #000000; stroke-width: 0.8; stroke-linejoin: miter; stroke-linecap: square"/>
   </g>
   <g id="patch_4">
    <path d="M 401.225469 255.166125 
L 401.225469 22.318125 
" style="fill: none; stroke: #000000; stroke-width: 0.8; stroke-linejoin: miter; stroke-linecap: square"/>
   </g>
   <g id="patch_5">
    <path d="M 44.105469 255.166125 
L 401.225469 255.166125 
" style="fill: none; stroke: #000000; stroke-width: 0.8; stroke-linejoin: miter; stroke-linecap: square"/>
   </g>
   <g id="patch_6">
    <path d="M 44.105469 22.318125 
L 401.225469 22.318125 
" style="fill: none; stroke: #000000; stroke-width: 0.8; stroke-linejoin: miter; stroke-linecap: square"/>
   </g>
   <g id="text_13">
    <!-- E1 - mass retained through a chain of overlapping balls -->
    <g transform="translate(56.082969 16.318125) scale(0.12 -0.12)">
     <defs>
      <path id="DejaVuSans-28" d="M 628 4666 
L 3578 4666 
L 3578 4134 
L 1259 4134 
L 1259 2753 
L 3481 2753 
L 3481 2222 
L 1259 2222 
L 1259 531 
L 3634 531 
L 3634 0 
L 628 0 
L 628 4666 
z
" transform="scale(0.015625)"/>
      <path id="DejaVuSans-10" d="M 313 2009 
L 1997 2009 
L 1997 1497 
L 313 1497 
L 313 2009 
z
" transform="scale(0.015625)"/>
      <path id="DejaVuSans-50" d="M 3328 2828 
Q 3544 3216 3844 3400 
Q 4144 3584 4550 3584 
Q 5097 3584 5394 3201 
Q 5691 2819 5691 2113 
L 5691 0 
L 5113 0 
L 5113 2094 
Q 5113 2597 4934 2840 
Q 4756 3084 4391 3084 
Q 3944 3084 3684 2787 
Q 3425 2491 3425 1978 
L 3425 0 
L 2847 0 
L 2847 2094 
Q 2847 2600 2669 2842 
Q 2491 3084 2119 3084 
Q 1678 3084 1418 2786 
Q 1159 2488 1159 1978 
L 1159 0 
L 581 0 
L 581 3500 
L 1159 3500 
L 1159 2956 
Q 1356 3278 1631 3431 
Q 1906 3584 2284 3584 
Q 2666 3584 2933 3390 
Q 3200 3197 3328 2828 
z
" transform="scale(0.015625)"/>
      <path id="DejaVuSans-58" d="M 544 1381 
L 544 3500 
L 1119 3500 
L 1119 1403 
Q 1119 906 1312 657 
Q 1506 409 1894 409 
Q 2359 409 2629 706 
Q 2900 1003 2900 1516 
L 2900 3500 
L 3475 3500 
L 3475 0 
L 2900 0 
L 2900 538 
Q 2691 219 2414 64 
Q 2138 -91 1772 -91 
Q 1169 -91 856 284 
Q 544 659 544 1381 
z
M 1991 3584 
L 1991 3584 
z
" transform="scale(0.015625)"/>
      <path id="DejaVuSans-59" d="M 191 3500 
L 800 3500 
L 1894 563 
L 2988 3500 
L 3597 3500 
L 2284 0 
L 1503 0 
L 191 3500 
z
" transform="scale(0.015625)"/>
      <path id="DejaVuSans-53" d="M 1159 525 
L 1159 -1331 
L 581 -1331 
L 581 3500 
L 1159 3500 
L 1159 2969 
Q 1341 3281 1617 3432 
Q 1894 3584 2278 3584 
Q 2916 3584 3314 3078 
Q 3713 2572 3713 1747 
Q 3713 922 3314 415 
Q 2916 -91 2278 -91 
Q 1894 -91 1617 61 
Q 1341 213 1159 525 
z
M 3116 1747 
Q 3116 2381 2855 2742 
Q 2594 3103 2138 3103 
Q 1681 3103 1420 2742 
Q 1159 2381 1159 1747 
Q 1159 1113 1420 752 
Q 1681 391 2138 391 
Q 2594 391 2855 752 
Q 3116 1113 3116 1747 
z
" transform="scale(0.015625)"/>
     </defs>
     <use xlink:href="#DejaVuSans-28"/>
     <use xlink:href="#DejaVuSans-14" transform="translate(63.1875 0)"/>
     <use xlink:href="#DejaVuSans-3" transform="translate(126.8125 0)"/>
     <use xlink:href="#DejaVuSans-10" transform="translate(158.59375 0)"/>
     <use xlink:href="#DejaVuSans-3" transform="translate(194.671875 0)"/>
     <use xlink:href="#DejaVuSans-50" transform="translate(226.453125 0)"/>
     <use xlink:href="#DejaVuSans-44" transform="translate(323.859375 0)"/>
     <use xlink:href="#DejaVuSans-56" transform="translate(385.140625 0)"/>
     <use xlink:href="#DejaVuSans-56" transform="translate(437.234375 0)"/>
     <use xlink:href="#DejaVuSans-3" transform="translate(489.328125 0)"/>
     <use xlink:href="#DejaVuSans-55" transform="translate(521.109375 0)"/>
     <use xlink:href="#DejaVuSans-48" transform="translate(560.015625 0)"/>
     <use xlink:href="#DejaVuSans-57" transform="translate(621.546875 0)"/>
     <use xlink:href="#DejaVuSans-44" transform="translate(660.75 0)"/>
     <use xlink:href="#DejaVuSans-4c" transform="translate(722.03125 0)"/>
     <use xlink:href="#DejaVuSans-51" transform="translate(749.8125 0)"/>
     <use xlink:href="#DejaVuSans-48" transform="translate(813.1875 0)"/>
     <use xlink:href="#DejaVuSans-47" transform="translate(874.71875 0)"/>
     <use xlink:href="#DejaVuSans-3" transform="translate(938.203125 0)"/>
     <use xlink:href="#DejaVuSans-57" transform="translate(969.984375 0)"/>
     <use xlink:href="#DejaVuSans-4b" transform="translate(1009.1875 0)"/>
     <use xlink:href="#DejaVuSans-55" transform="translate(1072.5625 0)"/>
     <use xlink:href="#DejaVuSans-52" transform="translate(1111.46875 0)"/>
     <use xlink:href="#DejaVuSans-58" transform="translate(1172.65625 0)"/>
     <use xlink:href="#DejaVuSans-4a" transform="translate(1236.03125 0)"/>
     <use xlink:href="#DejaVuSans-4b" transform="translate(1299.515625 0)"/>
     <use xlink:href="#DejaVuSans-3" transform="translate(1362.890625 0)"/>
     <use xlink:href="#DejaVuSans-44" transform="translate(1394.671875 0)"/>
     <use xlink:href="#DejaVuSans-3" transform="translate(1455.953125 0)"/>
     <use xlink:href="#DejaVuSans-46" transform="translate(1487.734375 0)"/>
     <use xlink:href="#DejaVuSans-4b" transform="translate(1542.71875 0)"/>
     <use xlink:href="#DejaVuSans-44" transform="translate(1606.09375 0)"/>
     <use xlink:href="#DejaVuSans-4c" transform="translate(1667.375 0)"/>
     <use xlink:href="#DejaVuSans-51" transform="translate(1695.15625 0)"/>
     <use xlink:href="#DejaVuSans-3" transform="translate(1758.53125 0)"/>
     <use xlink:href="#DejaVuSans-52" transform="translate(1790.3125 0)"/>
     <use xlink:href="#DejaVuSans-49" transform="translate(1851.5 0)"/>
     <use xlink:href="#DejaVuSans-3" transform="translate(1886.703125 0)"/>
     <use xlink:href="#DejaVuSans-52" transform="translate(1918.484375 0)"/>
     <use xlink:href="#DejaVuSans-59" transform="translate(1979.671875 0)"/>
     <use xlink:href="#DejaVuSans-48" transform="translate(2038.859375 0)"/>
     <use xlink:href="#DejaVuSans-55" transform="translate(2100.390625 0)"/>
     <use xlink:href="#DejaVuSans-4f" transform="translate(2141.5 0)"/>
     <use xlink:href="#DejaVuSans-44" transform="translate(2169.28125 0)"/>
     <use xlink:href="#DejaVuSans-53" transform="translate(2230.5625 0)"/>
     <use xlink:href="#DejaVuSans-53" transform="translate(2294.046875 0)"/>
     <use xlink:href="#DejaVuSans-4c" transform="translate(2357.53125 0)"/>
     <use xlink:href="#DejaVuSans-51" transform="translate(2385.3125 0)"/>
     <use xlink:href="#DejaVuSans-4a" transform="translate(2448.6875 0)"/>
     <use xlink:href="#DejaVuSans-3" transform="translate(2512.171875 0)"/>
     <use xlink:href="#DejaVuSans-45" transform="translate(2543.953125 0)"/>
     <use xlink:href="#DejaVuSans-44" transform="translate(2607.4375 0)"/>
     <use xlink:href="#DejaVuSans-4f" transform="translate(2668.71875 0)"/>
     <use xlink:href="#DejaVuSans-4f" transform="translate(2696.5 0)"/>
     <use xlink:href="#DejaVuSans-56" transform="translate(2724.28125 0)"/>
    </g>
   </g>
   <g id="legend_1">
    <g id="patch_7">
     <path d="M 51.105469 250.166125 
L 202.605469 250.166125 
Q 204.605469 250.166125 204.605469 248.166125 
L 204.605469 217.263 
Q 204.605469 215.263 202.605469 215.263 
L 51.105469 215.263 
Q 49.105469 215.263 49.105469 217.263 
L 49.105469 248.166125 
Q 49.105469 250.166125 51.105469 250.166125 
z
" style="fill: #ffffff; opacity: 0.8; stroke: #cccccc; stroke-linejoin: miter"/>
    </g>
    <g id="line2d_23">
     <path d="M 53.105469 223.361438 
L 63.105469 223.361438 
L 73.105469 223.361438 
" style="fill: none; stroke: #1f77b4; stroke-width: 2; stroke-linecap: square"/>
     <g>
      <use xlink:href="#mbabae5296a" x="63.105469" y="223.361438" style="fill: #1f77b4; stroke: #1f77b4"/>
     </g>
    </g>
    <g id="text_14">
     <!-- measured retention -->
     <g transform="translate(81.105469 226.861438) scale(0.1 -0.1)">
      <use xlink:href="#DejaVuSans-50"/>
      <use xlink:href="#DejaVuSans-48" transform="translate(97.40625 0)"/>
      <use xlink:href="#DejaVuSans-44" transform="translate(158.9375 0)"/>
      <use xlink:href="#DejaVuSans-56" transform="translate(220.21875 0)"/>
      <use xlink:href="#DejaVuSans-58" transform="translate(272.3125 0)"/>
      <use xlink:href="#DejaVuSans-55" transform="translate(335.6875 0)"/>
      <use xlink:href="#DejaVuSans-48" transform="translate(374.59375 0)"/>
      <use xlink:href="#DejaVuSans-47" transform="translate(436.125 0)"/>
      <use xlink:href="#DejaVuSans-3" transform="translate(499.609375 0)"/>
      <use xlink:href="#DejaVuSans-55" transform="translate(531.390625 0)"/>
      <use xlink:href="#DejaVuSans-48" transform="translate(570.296875 0)"/>
      <use xlink:href="#DejaVuSans-57" transform="translate(631.828125 0)"/>
      <use xlink:href="#DejaVuSans-48" transform="translate(671.03125 0)"/>
      <use xlink:href="#DejaVuSans-51" transform="translate(732.5625 0)"/>
      <use xlink:href="#DejaVuSans-57" transform="translate(795.9375 0)"/>
      <use xlink:href="#DejaVuSans-4c" transform="translate(835.140625 0)"/>
      <use xlink:href="#DejaVuSans-52" transform="translate(862.921875 0)"/>
      <use xlink:href="#DejaVuSans-51" transform="translate(924.109375 0)"/>
     </g>
    </g>
    <g id="line2d_24">
     <path d="M 53.105469 240.263781 
L 63.105469 240.263781 
L 73.105469 240.263781 
" style="fill: none; stroke-dasharray: 5.55,2.4; stroke-dashoffset: 0; stroke: #d62728; stroke-width: 1.5"/>
     <g>
      <use xlink:href="#m65ce87c8a0" x="63.105469" y="240.263781" style="fill: #d62728; stroke: #d62728; stroke-linejoin: miter"/>
     </g>
    </g>
    <g id="text_15">
     <!-- worst-case floor $(1-\epsilon)^k$ -->
     <g transform="translate(81.105469 243.763781) scale(0.1 -0.1)">
      <defs>
       <path id="DejaVuSans-c9c" d="M 678 2272 
L 4684 2272 
L 4684 1741 
L 678 1741 
L 678 2272 
z
" transform="scale(0.015625)"/>
       <path id="DejaVuSans-Oblique-349" d="M 1263 1888 
Q 925 1963 778 2166 
Q 669 2309 669 2503 
Q 669 3034 1175 3344 
Q 1575 3588 2188 3588 
Q 2425 3588 2684 3550 
Q 2944 3513 3234 3438 
L 3134 2916 
Q 2847 3006 2606 3047 
Q 2359 3088 2138 3088 
Q 1766 3088 1522 2944 
Q 1228 2772 1228 2522 
Q 1228 2356 1381 2241 
Q 1563 2103 1925 2103 
L 2409 2103 
L 2319 1628 
L 1856 1628 
Q 1425 1628 1172 1469 
Q 828 1253 828 916 
Q 828 703 1013 563 
Q 1244 388 1716 388 
Q 2006 388 2284 444 
Q 2563 503 2806 619 
L 2700 84 
Q 2403 -3 2131 -47 
Q 1859 -91 1609 -91 
Q 866 -91 516 194 
Q 250 413 250 781 
Q 250 1278 600 1584 
Q 859 1813 1263 1888 
z
" transform="scale(0.015625)"/>
      </defs>
      <use xlink:href="#DejaVuSans-5a" transform="translate(0 0.510938)"/>
      <use xlink:href="#DejaVuSans-52" transform="translate(81.787109 0.510938)"/>
      <use xlink:href="#DejaVuSans-55" transform="translate(142.96875 0.510938)"/>
      <use xlink:href="#DejaVuSans-56" transform="translate(184.082031 0.510938)"/>
      <use xlink:href="#DejaVuSans-57" transform="translate(236.181641 0.510938)"/>
      <use xlink:href="#DejaVuSans-10" transform="translate(275.390625 0.510938)"/>
      <use xlink:href="#DejaVuSans-46" transform="translate(311.474609 0.510938)"/>
      <use xlink:href="#DejaVuSans-44" transform="translate(366.455078 0.510938)"/>
      <use xlink:href="#DejaVuSans-56" transform="translate(427.734375 0.510938)"/>
      <use xlink:href="#DejaVuSans-48" transform="translate(479.833984 0.510938)"/>
      <use xlink:href="#DejaVuSans-3" transform="translate(541.357422 0.510938)"/>
      <use xlink:href="#DejaVuSans-49" transform="translate(573.144531 0.510938)"/>
      <use xlink:href="#DejaVuSans-4f" transform="translate(608.349609 0.510938)"/>
      <use xlink:href="#DejaVuSans-52" transform="translate(636.132812 0.510938)"/>
      <use xlink:href="#DejaVuSans-52" transform="translate(697.314453 0.510938)"/>
      <use xlink:href="#DejaVuSans-55" transform="translate(758.496094 0.510938)"/>
      <use xlink:href="#DejaVuSans-3" transform="translate(799.609375 0.510938)"/>
      <use xlink:href="#DejaVuSans-b" transform="translate(831.396484 0.510938)"/>
      <use xlink:href="#DejaVuSans-14" transform="translate(870.410156 0.510938)"/>
      <use xlink:href="#DejaVuSans-c9c" transform="translate(953.515625 0.510938)"/>
      <use xlink:href="#DejaVuSans-Oblique-349" transform="translate(1056.787109 0.510938)"/>
      <use xlink:href="#DejaVuSans-c" transform="translate(1110.839844 0.510938)"/>
      <use xlink:href="#DejaVuSans-Oblique-4e" transform="translate(1150.810547 41.810938) scale(0.7)"/>
     </g>
    </g>
   </g>
  </g>
 </g>
 <defs>
  <clipPath id="p594c844361">
   <rect x="44.105469" y="22.318125" width="357.12" height="232.848"/>
  </clipPath>
 </defs>
</svg>
